<svg width="56" height="57" viewBox="0 0 56 57" fill="none" xmlns="http://www.w3.org/2000/svg">
<path d="M53.8777 32.6351H5.46482C5.5991 32.5291 5.70774 32.3941 5.78264 32.2402C5.85755 32.0864 5.89674 31.9176 5.8974 31.7465V7.83042C5.8974 6.3553 6.48343 4.94062 7.5265 3.89755C8.56957 2.85448 9.98425 2.2685 11.4594 2.2685C12.9345 2.2685 14.3493 2.85448 15.3923 3.89755C16.4354 4.94062 17.0213 6.3553 17.0213 7.83042C17.0213 7.85381 17.0213 7.87722 17.0213 7.9045L16.2184 8.19683C13.5524 9.16734 12.2662 12.4843 13.1549 15.8479L12.3754 16.1364C12.2284 16.1823 12.0923 16.2576 11.9753 16.3576C11.8583 16.4577 11.7628 16.5804 11.6946 16.7184C11.6264 16.8565 11.5869 17.0069 11.5785 17.1606C11.5701 17.3144 11.593 17.4682 11.6458 17.6128C11.6986 17.7575 11.7801 17.8899 11.8856 18.0021C11.991 18.1143 12.1181 18.2039 12.2592 18.2655C12.4003 18.3272 12.5524 18.3596 12.7063 18.3607C12.8603 18.3619 13.0129 18.3318 13.1549 18.2723L28.7455 12.5973C29.0154 12.4842 29.2313 12.2715 29.3485 12.0034C29.4656 11.7353 29.475 11.4323 29.3747 11.1575C29.2744 10.8826 29.0721 10.6569 28.8098 10.5273C28.5475 10.3977 28.2453 10.374 27.966 10.4613L27.2917 10.7069C26.6974 9.39902 25.7532 8.28084 24.5634 7.47577C23.9144 7.0139 23.1649 6.71291 22.3767 6.5977C21.5886 6.48249 20.7843 6.55634 20.0303 6.81314L19.2508 7.0938C19.0605 5.08954 18.1059 3.23544 16.585 1.91622C15.0642 0.59701 13.0939 -0.0860707 11.0828 0.00869058C9.07179 0.103452 7.17441 0.968799 5.78436 2.42517C4.3943 3.88155 3.61832 5.81714 3.61733 7.83042V31.7465C3.61799 31.9176 3.65718 32.0864 3.73209 32.2402C3.80699 32.3941 3.91563 32.5291 4.04991 32.6351H1.2047C1.0499 32.6261 0.894811 32.6488 0.749082 32.7018C0.603353 32.7548 0.470032 32.837 0.357222 32.9434C0.244412 33.0498 0.154496 33.1781 0.0930643 33.3205C0.031633 33.4629 0 33.6163 0 33.7713C0 33.9264 0.031633 34.0798 0.0930643 34.2222C0.154496 34.3646 0.244412 34.4929 0.357222 34.5993C0.470032 34.7057 0.603353 34.7879 0.749082 34.8409C0.894811 34.8939 1.0499 34.9166 1.2047 34.9075H3.39123C3.50816 39.7523 4.64237 43.9345 6.69254 47.037C7.61514 48.4564 8.80689 49.6812 10.2004 50.6424C9.97337 50.7365 9.78321 50.902 9.6587 51.114L7.83462 54.2321C7.75855 54.3614 7.70886 54.5045 7.68846 54.6531C7.66806 54.8017 7.67735 54.9529 7.71577 55.0979C7.7542 55.2429 7.82096 55.3788 7.91227 55.4978C8.00359 55.6168 8.11759 55.7165 8.2477 55.7912C8.42033 55.8919 8.61686 55.9445 8.81675 55.9432C9.01565 55.9434 9.21111 55.8913 9.38351 55.7921C9.5559 55.6929 9.69918 55.5501 9.79897 55.378L11.6231 52.2599C11.7489 52.0433 11.7982 51.7907 11.7634 51.5427C13.5294 52.3675 15.4583 52.7844 17.4072 52.7627H37.6751C39.624 52.7844 41.5529 52.3675 43.3189 51.5427C43.284 51.7907 43.3335 52.0433 43.4592 52.2599L45.2833 55.378C45.3502 55.5209 45.4462 55.6483 45.5651 55.752C45.684 55.8557 45.8231 55.9334 45.9738 55.9803C46.1244 56.0271 46.2832 56.042 46.4399 56.024C46.5967 56.006 46.7479 55.9555 46.884 55.8758C47.0202 55.796 47.1381 55.6887 47.2304 55.5608C47.3227 55.4329 47.3873 55.287 47.4201 55.1327C47.4528 54.9784 47.453 54.819 47.4206 54.6646C47.3883 54.5101 47.3241 54.3642 47.2321 54.236L45.4081 51.1179C45.2835 50.9059 45.0933 50.7404 44.8662 50.6463C46.2598 49.6851 47.4515 48.4603 48.3741 47.0409C50.4243 43.9228 51.5586 39.7562 51.6755 34.9114H53.8777C54.0325 34.9205 54.1875 34.8978 54.3332 34.8448C54.4789 34.7918 54.6123 34.7096 54.7251 34.6032C54.8379 34.4968 54.9278 34.3685 54.9892 34.2261C55.0506 34.0837 55.0824 33.9303 55.0824 33.7752C55.0824 33.6202 55.0506 33.4668 54.9892 33.3244C54.9278 33.182 54.8379 33.0537 54.7251 32.9473C54.6123 32.8409 54.4789 32.7587 54.3332 32.7057C54.1875 32.6527 54.0325 32.63 53.8777 32.639V32.6351ZM20.8138 8.9491C21.2373 8.8181 21.6858 8.78898 22.1227 8.86417C22.5595 8.93935 22.9725 9.1167 23.3278 9.38173C24.1079 9.91628 24.7373 10.6424 25.1558 11.4903L15.3259 15.0684C14.8387 12.9403 15.5324 10.8706 17.0174 10.3327L20.8138 8.9491ZM37.6751 50.4865H17.4072C9.04283 50.4865 5.87407 42.5898 5.6636 34.8958H49.3993C49.2005 42.5898 46.0277 50.4865 37.6633 50.4865H37.6751Z" fill="#022C44"/>
<path d="M19.9133 22.9339C19.7928 22.933 19.6755 22.8952 19.5772 22.8255C19.4789 22.7557 19.4044 22.6575 19.3637 22.5441L18.2723 19.5546C18.2332 19.4122 18.2495 19.2603 18.3178 19.1293C18.3862 18.9984 18.5016 18.8982 18.6408 18.8488C18.78 18.7994 18.9327 18.8046 19.0682 18.8632C19.2038 18.9219 19.3121 19.0296 19.3715 19.1649L20.4629 22.1505C20.4896 22.2224 20.5017 22.2988 20.4987 22.3755C20.4957 22.4521 20.4776 22.5274 20.4454 22.5969C20.4131 22.6665 20.3673 22.729 20.3108 22.7808C20.2543 22.8326 20.188 22.8727 20.1159 22.8988C20.0513 22.9235 19.9825 22.9354 19.9133 22.9339Z" fill="#022C44"/>
<path d="M22.7198 22.9339C22.5995 22.9324 22.4824 22.8944 22.3842 22.8247C22.2861 22.7551 22.2114 22.6572 22.1702 22.5441L21.0594 19.5546C21.0203 19.4122 21.0366 19.2603 21.1049 19.1293C21.1733 18.9984 21.2886 18.8982 21.4278 18.8488C21.567 18.7994 21.7198 18.8046 21.8553 18.8632C21.9909 18.9219 22.0993 19.0296 22.1586 19.1649L23.2694 22.1505C23.3224 22.2963 23.3157 22.4571 23.2507 22.598C23.1858 22.7388 23.0678 22.8484 22.9225 22.9027C22.8576 22.9261 22.7888 22.9367 22.7198 22.9339Z" fill="#022C44"/>
<path d="M25.2922 20.9381C25.1722 20.9369 25.0556 20.8989 24.958 20.8292C24.8603 20.7595 24.7865 20.6614 24.7465 20.5483L23.3511 16.8261C23.2963 16.6808 23.3015 16.5198 23.3655 16.3784C23.4295 16.2369 23.5469 16.1266 23.6922 16.0718C23.8374 16.0171 23.9984 16.0222 24.1399 16.0862C24.2813 16.1501 24.3916 16.2677 24.4464 16.4129L25.8418 20.1391C25.896 20.2843 25.8904 20.4452 25.8261 20.5862C25.7618 20.7273 25.644 20.837 25.4987 20.8913C25.4336 20.9203 25.3634 20.9362 25.2922 20.9381Z" fill="#022C44"/>
</svg>
