<svg width="56" height="55" viewBox="0 0 56 55" fill="none" xmlns="http://www.w3.org/2000/svg">
<path d="M55.8183 40.1787L50.1511 22.1598C50.0552 22.0989 49.9747 22.0165 49.9159 21.9193C49.8571 21.8221 49.8216 21.7126 49.8122 21.5993C49.8027 21.4861 49.8196 21.3722 49.8615 21.2666C49.9034 21.161 49.9692 21.0665 50.0536 20.9905V4.84638C50.0734 3.62617 49.6079 2.44803 48.7593 1.57096C47.9107 0.693892 46.7487 0.189695 45.5285 0.169189H10.3482C9.74415 0.17934 9.14805 0.308355 8.59392 0.548917C8.03979 0.789478 7.53845 1.13686 7.1186 1.5712C6.69874 2.00553 6.36858 2.51834 6.14694 3.0803C5.92529 3.64227 5.8165 4.24238 5.82683 4.84638V20.9905C5.91724 21.0588 5.99063 21.1471 6.04112 21.2486C6.09162 21.35 6.11787 21.4618 6.11787 21.5752C6.11787 21.6885 6.09162 21.8003 6.04112 21.9017C5.99063 22.0031 5.91724 22.0915 5.82683 22.1598L0.0505144 40.1748C0.00685652 40.3133 -0.00873702 40.459 0.00464837 40.6036C0.0180338 40.7481 0.06011 40.8886 0.128449 41.0167C0.0955401 41.12 0.078455 41.2278 0.0777771 41.3363V53.1735C0.0777762 53.3161 0.105962 53.4573 0.16066 53.589C0.215357 53.7208 0.295525 53.8404 0.396556 53.941C0.497586 54.0417 0.617488 54.1215 0.749401 54.1757C0.881313 54.2299 1.02262 54.2576 1.16524 54.2571H8.72671C8.86934 54.2576 9.01064 54.2299 9.14255 54.1757C9.27447 54.1215 9.39437 54.0417 9.4954 53.941C9.59643 53.8404 9.6766 53.7208 9.73129 53.589C9.78599 53.4573 9.81418 53.3161 9.81418 53.1735V48.2624H46.0624V53.1735C46.0619 53.3159 46.0896 53.4571 46.1438 53.5888C46.1981 53.7205 46.2779 53.8401 46.3786 53.9408C46.4794 54.0416 46.599 54.1213 46.7307 54.1756C46.8624 54.2299 47.0035 54.2576 47.146 54.2571H54.7113C54.8538 54.2576 54.9949 54.2299 55.1266 54.1756C55.2583 54.1213 55.378 54.0416 55.4787 53.9408C55.5794 53.8401 55.6592 53.7205 55.7134 53.5888C55.7677 53.4571 55.7954 53.3159 55.7949 53.1735V41.3363C55.7048 40.9505 55.7142 40.5482 55.8222 40.167L55.8183 40.1787ZM10.3482 2.34407H45.5285C46.1688 2.36846 46.7736 2.6446 47.2115 3.11242C47.6494 3.58024 47.885 4.20195 47.8671 4.84248V20.9866C47.863 21.0307 47.863 21.075 47.8671 21.1191C47.0875 20.9749 46.2729 20.8385 45.3803 20.7294C45.4144 20.6221 45.4327 20.5105 45.4349 20.3981V17.1981C45.4557 15.883 44.9541 14.6134 44.04 13.6679C43.1258 12.7223 41.8739 12.1781 40.5589 12.1545H31.9607C31.1528 12.1586 30.3588 12.3652 29.6514 12.7554C28.9439 13.1455 28.3456 13.7068 27.911 14.3879C27.4764 13.7068 26.8781 13.1455 26.1707 12.7554C25.4632 12.3652 24.6692 12.1586 23.8613 12.1545H15.2904C13.9754 12.1781 12.7235 12.7223 11.8094 13.6679C10.8952 14.6134 10.3935 15.883 10.4144 17.1981V20.3825C10.415 20.5417 10.4509 20.6988 10.5196 20.8424C9.65435 20.9515 8.80595 21.071 7.97444 21.201C7.99012 21.1293 7.99798 21.0561 7.99785 20.9827V4.83858C7.98103 4.19676 8.21868 3.5743 8.65896 3.107C9.09925 2.63969 9.70647 2.36545 10.3482 2.34407ZM26.617 19.7939C21.9047 19.8602 17.0638 20.1174 12.562 20.6085C12.5775 20.5355 12.5853 20.461 12.5854 20.3864V17.1864C12.5644 16.4471 12.8373 15.7296 13.3443 15.1912C13.8514 14.6527 14.5511 14.3372 15.2904 14.3138H23.8886C24.6278 14.3372 25.3276 14.6527 25.8347 15.1912C26.3417 15.7296 26.6146 16.4471 26.5936 17.1864V19.6029C26.5948 19.6672 26.6027 19.7312 26.617 19.7939ZM43.299 20.4604C38.6364 19.9942 33.9531 19.7666 29.2674 19.7783C29.2733 19.7135 29.2733 19.6482 29.2674 19.5834V17.1864C29.2557 16.4458 29.5349 15.7301 30.045 15.193C30.5551 14.6559 31.2555 14.3403 31.9957 14.3138H40.5862C41.3251 14.3383 42.0243 14.6541 42.5311 15.1923C43.0379 15.7305 43.3111 16.4474 43.2912 17.1864V20.3825C43.2967 20.4091 43.3046 20.4351 43.3146 20.4604H43.299ZM7.68992 23.4499C20.8835 21.3062 40.1302 21.6648 48.2685 23.407L53.3004 39.4186H2.58009L7.68992 23.4499ZM48.2256 52.086V47.175C48.2256 46.8866 48.1111 46.61 47.9071 46.4061C47.7032 46.2021 47.4266 46.0875 47.1382 46.0875H8.73062C8.44221 46.0875 8.16558 46.2021 7.96165 46.4061C7.75771 46.61 7.64315 46.8866 7.64315 47.175V52.086H2.2527V41.5897H53.6161V52.086H48.2256Z" fill="#022C44"/>
</svg>
