<svg width="125" height="113" viewBox="0 0 125 113" fill="none" xmlns="http://www.w3.org/2000/svg">
<path d="M94.4906 112.425C81.5954 112.119 70.609 108.367 60.2491 102.757C37.0378 90.1458 17.95 73.1417 5.67406 49.3621C1.49952 41.2826 -0.99211 32.6493 0.377548 23.375C1.47006 15.8535 5.12407 8.9392 10.7228 3.79911C14.9047 -0.149582 19.8223 -0.929127 25.2427 1.03793C26.4483 1.44929 27.552 2.11399 28.4793 2.98735C29.4067 3.86071 30.1364 4.92249 30.6193 6.1013C33.6792 12.9714 36.7391 19.8416 39.9592 26.6389C41.7733 30.4564 41.4746 33.9243 38.8956 37.1881C37.0159 39.5632 35.0052 41.8362 33.1109 44.204C31.9234 45.6611 31.2532 47.1765 32.4771 49.1508C42.2396 64.8873 54.9526 77.0977 72.525 83.7055C78.4116 85.8912 79.4535 85.5852 83.3657 80.6602C85.7845 77.6222 88.0794 74.4895 90.367 71.3495C91.9406 69.1638 93.8276 68.6174 96.3847 69.5135C105.127 72.5442 113.28 76.8645 121.643 80.7258C124.732 82.1829 125.046 85.2136 124.689 88.2735C123.392 99.4201 112.719 109.802 100.428 111.805C98.1478 112.17 95.8384 112.286 94.4906 112.425Z" fill="#022C44"/>
<path d="M112.682 53.0777C112.792 54.5348 113.185 56.3124 110.198 56.327C107.743 56.327 106.941 55.6859 106.737 53.1214C104.829 28.963 86.7244 10.8296 62.7482 9.06653C59.9724 8.86254 59.3313 7.91544 59.4187 5.33641C59.5061 2.50238 61.2692 3.0415 62.9011 3.10707C88.9319 4.12703 111.582 26.7045 112.682 53.0777Z" fill="#022C44"/>
<path d="M99.5375 48.1311C99.654 50.7174 100.266 52.5825 97.4028 52.5023C95.3338 52.4368 93.9204 52.6044 93.6508 49.6465C92.2666 34.3471 80.9232 22.8799 65.3688 21.0949C62.4547 20.7525 62.1778 19.5577 62.2143 17.2045C62.258 14.2903 64.1959 15.0189 65.7622 15.1354C83.6407 16.6362 98.6049 31.6733 99.5375 48.1311Z" fill="#022C44"/>
<path d="M83.7066 49.3111C81.6813 49.6681 80.7925 48.9759 80.3845 46.7685C79.146 40.4593 75.2337 36.3066 68.8663 35.2356C65.4348 34.6601 65.9521 32.5473 66.1998 30.522C66.5349 27.892 68.5676 29.1232 69.9008 29.3636C74.0377 30.1189 77.8401 32.1342 80.7875 35.1338C83.7349 38.1333 85.6833 41.9705 86.3658 46.1201C86.6864 48.3202 86.4678 49.8283 83.7066 49.3111Z" fill="#022C44"/>
</svg>
