<svg width="77" height="32" viewBox="0 0 77 32" fill="none" xmlns="http://www.w3.org/2000/svg">
<path d="M62.7865 9.78062C63.0822 9.78062 63.3657 9.66319 63.5747 9.45413C63.7838 9.24508 63.9012 8.96154 63.9012 8.66589V3.74314C63.9012 3.4475 63.7838 3.16396 63.5747 2.9549C63.3657 2.74585 63.0822 2.62842 62.7865 2.62842H13.5512C13.2556 2.62842 12.9721 2.74585 12.763 2.9549C12.554 3.16396 12.4365 3.4475 12.4365 3.74314V8.66589C12.4365 8.96154 12.554 9.24508 12.763 9.45413C12.9721 9.66319 13.2556 9.78062 13.5512 9.78062H24.0749V30.2668C24.0744 30.413 24.1028 30.5578 24.1584 30.693C24.214 30.8282 24.2957 30.9511 24.3989 31.0547C24.5021 31.1583 24.6248 31.2405 24.7598 31.2966C24.8948 31.3526 25.0396 31.3815 25.1858 31.3815H30.1085C30.4042 31.3815 30.6877 31.264 30.8967 31.0549C31.1058 30.8459 31.2232 30.5624 31.2232 30.2668V20.1562H45.1223V30.2668C45.1223 30.5624 45.2397 30.8459 45.4488 31.0549C45.6579 31.264 45.9414 31.3815 46.237 31.3815H51.1559C51.4515 31.3815 51.7351 31.264 51.9441 31.0549C52.1532 30.8459 52.2706 30.5624 52.2706 30.2668V9.78062H62.7865ZM14.6777 4.85787H61.6718V7.55117H14.6777V4.85787ZM28.9899 29.152H26.2966V9.78062H28.9899V29.152ZM31.2193 17.9306V9.78062H45.1223V17.9306H31.2193ZM50.0529 29.152H47.3635V9.78062H50.0529V29.152Z" fill="#022C44"/>
<path d="M19.5651 15.4711H5.82585L2.1971 1.09264C2.12474 0.805777 1.94139 0.55941 1.68739 0.407737C1.43338 0.256064 1.12953 0.211529 0.842672 0.283889C0.555813 0.35625 0.309447 0.539596 0.157774 0.793602C0.00610089 1.04761 -0.0384824 1.35146 0.0338783 1.63832L3.8458 16.7262V21.3527L1.42537 29.9704C1.34641 30.2563 1.38416 30.5617 1.53033 30.8197C1.6765 31.0777 1.91914 31.2671 2.2049 31.3463C2.30409 31.3726 2.40632 31.3857 2.50893 31.3853C2.75146 31.3852 2.98731 31.3059 3.18075 31.1596C3.37418 31.0133 3.51464 30.8079 3.58079 30.5746L5.81024 22.6194H15.4998L17.7332 30.5746C17.7987 30.8082 17.939 31.014 18.1326 31.1604C18.3262 31.3068 18.5623 31.3858 18.805 31.3853C18.9063 31.3854 19.0072 31.3722 19.1052 31.3463C19.2469 31.3075 19.3796 31.2412 19.4956 31.1509C19.6117 31.0607 19.7087 30.9484 19.7811 30.8205C19.8536 30.6927 19.9 30.5517 19.9178 30.4058C19.9356 30.2599 19.9243 30.112 19.8847 29.9704L17.8228 22.6194H19.5807C19.8756 22.6194 20.1586 22.5025 20.3675 22.2943C20.5765 22.0861 20.6944 21.8036 20.6954 21.5086V16.5858C20.6954 16.4381 20.6661 16.2919 20.6091 16.1556C20.5521 16.0194 20.4686 15.8958 20.3634 15.792C20.2583 15.6883 20.1335 15.6066 19.9965 15.5515C19.8594 15.4964 19.7128 15.4691 19.5651 15.4711ZM18.4503 20.3939H6.07525V17.7006H18.4503V20.3939Z" fill="#022C44"/>
<path d="M76.3031 1.63832C76.3466 1.4941 76.3604 1.34258 76.3437 1.19289C76.3269 1.04319 76.28 0.898412 76.2058 0.767341C76.1316 0.636269 76.0315 0.521586 75.9118 0.430244C75.792 0.338903 75.655 0.272789 75.5089 0.235884C75.3629 0.198979 75.2109 0.192047 75.0621 0.215521C74.9133 0.238994 74.7708 0.292411 74.6432 0.372483C74.5156 0.452556 74.4056 0.557634 74.3198 0.681413C74.2339 0.805192 74.1741 0.945081 74.1438 1.09264L70.5112 15.4711H56.772C56.477 15.4722 56.1944 15.59 55.9862 15.799C55.778 16.0079 55.6611 16.2909 55.6611 16.5858V21.5086C55.6622 21.8029 55.7795 22.0848 55.9876 22.2929C56.1957 22.501 56.4777 22.6184 56.772 22.6194H58.5337L56.4679 29.9705C56.389 30.2563 56.4267 30.5617 56.5729 30.8197C56.7191 31.0777 56.9617 31.2671 57.2475 31.3463C57.3467 31.3726 57.4489 31.3857 57.5515 31.3853C57.794 31.3852 58.0299 31.3059 58.2234 31.1596C58.4168 31.0133 58.5572 30.8079 58.6233 30.5746L60.8528 22.6194H70.5424L72.7757 30.5746C72.81 30.7212 72.8737 30.8594 72.9629 30.9807C73.0521 31.1021 73.1649 31.2041 73.2946 31.2807C73.4243 31.3572 73.5682 31.4067 73.7175 31.4261C73.8669 31.4455 74.0186 31.4344 74.1635 31.3936C74.3085 31.3527 74.4437 31.283 74.5609 31.1884C74.6781 31.0939 74.7751 30.9766 74.8457 30.8436C74.9163 30.7106 74.9593 30.5646 74.972 30.4146C74.9847 30.2645 74.9668 30.1134 74.9194 29.9705L72.5029 21.3527V16.7262L76.3031 1.63832ZM70.2657 20.3939H57.8867V17.7006H70.2657V20.3939Z" fill="#022C44"/>
</svg>
