<svg width="31" height="31" viewBox="0 0 31 31" fill="none" xmlns="http://www.w3.org/2000/svg">
<path d="M25.9141 11.6251C25.9147 9.86535 25.4695 8.13415 24.6199 6.59311C23.7703 5.05208 22.544 3.75146 21.0556 2.8127C19.5672 1.87394 17.8652 1.32764 16.1085 1.22482C14.3518 1.12201 12.5976 1.46602 11.0099 2.22474C9.42213 2.98346 8.05253 4.13214 7.02895 5.56354C6.00537 6.99495 5.3612 8.66238 5.15658 10.4102C4.95196 12.158 5.19357 13.9291 5.85885 15.5582C6.52412 17.1873 7.59137 18.6213 8.96094 19.7262V29.0626C8.96155 29.1856 8.99289 29.3065 9.0521 29.4144C9.11131 29.5222 9.19652 29.6136 9.3 29.6801C9.40667 29.7452 9.52787 29.7825 9.65262 29.7889C9.77738 29.7952 9.90175 29.7703 10.0145 29.7165L15.5 26.9676L20.9855 29.7165C21.0882 29.7635 21.1996 29.7883 21.3125 29.7891C21.4492 29.7888 21.5832 29.7511 21.7 29.6801C21.8035 29.6136 21.8887 29.5222 21.9479 29.4144C22.0071 29.3065 22.0385 29.1856 22.0391 29.0626V19.7262C23.2491 18.7511 24.2253 17.5173 24.8958 16.1154C25.5664 14.7135 25.9143 13.1791 25.9141 11.6251ZM6.53906 11.6251C6.53906 9.85276 7.06462 8.12026 8.04926 6.64664C9.0339 5.17302 10.4334 4.02447 12.0708 3.34624C13.7082 2.66801 15.5099 2.49055 17.2482 2.83631C18.9864 3.18207 20.5831 4.03552 21.8363 5.28873C23.0896 6.54194 23.943 8.13862 24.2888 9.87688C24.6345 11.6151 24.4571 13.4169 23.7788 15.0543C23.1006 16.6917 21.9521 18.0912 20.4784 19.0758C19.0048 20.0605 17.2723 20.586 15.5 20.586C13.1244 20.5828 10.847 19.6377 9.1672 17.9579C7.48739 16.2781 6.54227 14.0007 6.53906 11.6251ZM20.5859 27.888L15.827 25.5024C15.7245 25.4548 15.613 25.4301 15.5 25.4301C15.387 25.4301 15.2755 25.4548 15.173 25.5024L10.4141 27.888V20.7071C11.967 21.5802 13.7185 22.0388 15.5 22.0388C17.2815 22.0388 19.033 21.5802 20.5859 20.7071V27.888ZM15.5 18.1641C16.7933 18.1641 18.0576 17.7806 19.1329 17.0621C20.2083 16.3436 21.0464 15.3223 21.5413 14.1275C22.0362 12.9326 22.1657 11.6178 21.9134 10.3494C21.6611 9.08091 21.0383 7.91576 20.1238 7.00125C19.2093 6.08675 18.0442 5.46396 16.7757 5.21165C15.5073 4.95934 14.1925 5.08884 12.9976 5.58376C11.8028 6.07869 10.7815 6.91682 10.063 7.99216C9.34445 9.0675 8.96094 10.3318 8.96094 11.6251C8.96094 13.3593 9.64987 15.0226 10.8762 16.2489C12.1025 17.4752 13.7657 18.1641 15.5 18.1641ZM15.5 6.53913C16.5059 6.53913 17.4892 6.83742 18.3256 7.39627C19.162 7.95512 19.8139 8.74943 20.1988 9.67876C20.5837 10.6081 20.6845 11.6307 20.4882 12.6173C20.292 13.6039 19.8076 14.5101 19.0963 15.2214C18.385 15.9327 17.4788 16.417 16.4922 16.6133C15.5056 16.8095 14.483 16.7088 13.5537 16.3239C12.6244 15.9389 11.83 15.287 11.2712 14.4507C10.7123 13.6143 10.4141 12.631 10.4141 11.6251C10.4141 10.2762 10.9499 8.98256 11.9037 8.02877C12.8575 7.07497 14.1511 6.53913 15.5 6.53913Z" fill="black"/>
</svg>
