<svg width="138" height="115" viewBox="0 0 138 115" fill="none" xmlns="http://www.w3.org/2000/svg">
<path d="M0.810547 9.21296C0.810547 4.36506 4.74055 0.435059 9.58845 0.435059L128.968 0.435059C133.816 0.435059 137.746 4.36506 137.746 9.21296V84.3566C137.746 89.2045 133.816 93.1345 128.968 93.1345H27.0287C26.3955 93.1345 25.7836 93.3626 25.3049 93.7771L5.16772 111.214C3.46219 112.691 0.810547 111.479 0.810547 109.223V9.21296Z" fill="#022C44"/>
<path d="M68.8884 29.6104C72.6537 29.6104 75.6624 30.5957 77.9145 32.5663C80.2018 34.5369 81.3455 37.3169 81.3455 40.9062C81.3455 44.2141 80.2546 46.8005 78.0729 48.6655C75.9263 50.4954 73.0759 51.4279 69.5218 51.4631L69.2579 55.422H61.3402L61.0763 45.6041H64.2433C66.9529 45.6041 69.0115 45.2697 70.4191 44.6011C71.8619 43.9325 72.5833 42.7185 72.5833 40.959C72.5833 39.7274 72.249 38.7597 71.5804 38.0559C70.9118 37.3521 69.9792 37.0002 68.7828 37.0002C67.516 37.0002 66.5307 37.3697 65.8269 38.1087C65.1231 38.8125 64.7712 39.7802 64.7712 41.0118H56.2729C56.2025 38.8652 56.6424 36.9298 57.5925 35.2055C58.5778 33.4812 60.0206 32.1264 61.9208 31.1411C63.8562 30.1206 66.1788 29.6104 68.8884 29.6104ZM65.4046 69.1459C63.8211 69.1459 62.519 68.6884 61.4985 67.7735C60.5132 66.8234 60.0206 65.6621 60.0206 64.2897C60.0206 62.8822 60.5132 61.7033 61.4985 60.7532C62.519 59.8031 63.8211 59.328 65.4046 59.328C66.9529 59.328 68.2198 59.8031 69.2051 60.7532C70.2256 61.7033 70.7358 62.8822 70.7358 64.2897C70.7358 65.6621 70.2256 66.8234 69.2051 67.7735C68.2198 68.6884 66.9529 69.1459 65.4046 69.1459Z" fill="white"/>
</svg>
