<svg width="166" height="161" viewBox="0 0 166 161" fill="none" xmlns="http://www.w3.org/2000/svg">
<path d="M136.11 0.109997C100.63 -0.0300027 65.1467 -0.0300027 29.66 0.109997C10.59 0.189997 0 11.05 0 30.07C0 63.3567 0 96.6667 0 130C0 149.88 10.59 160.47 30.57 160.55C47.9 160.62 65.23 160.55 82.57 160.55C100.4 160.55 118.22 160.62 136.05 160.55C154.93 160.46 165.72 149.55 165.73 130.61C165.73 97.13 165.73 63.6567 165.73 30.19C165.72 11.22 155 0.179997 136.11 0.109997ZM156.48 129.76C156.48 145.26 150.16 151.69 134.71 151.76C117.39 151.83 100.07 151.76 82.71 151.76C65.55 151.76 48.4 151.76 31.25 151.76C15.44 151.76 9.25 145.4 9.25 129.56C9.25 96.6 9.25 63.64 9.25 30.68C9.25 15.61 15.66 8.85 30.72 8.79C65.5733 8.65 100.39 8.65333 135.17 8.8C149.91 8.87 156.48 15.8 156.48 30.38C156.5 63.5067 156.5 96.6333 156.48 129.76Z" fill="white"/>
<path d="M135.69 21.6C137.795 21.5838 139.821 22.3977 141.33 23.8652C142.838 25.3327 143.708 27.3357 143.75 29.44C143.669 31.5387 142.789 33.5272 141.291 34.9992C139.793 36.4712 137.79 37.3157 135.69 37.36C133.591 37.3296 131.586 36.4879 130.095 35.0113C128.603 33.5348 127.741 31.5381 127.69 29.44C127.716 27.3411 128.573 25.3381 130.072 23.8689C131.571 22.3997 133.591 21.584 135.69 21.6Z" fill="white"/>
<path d="M83.48 39.26C59.83 39 40.66 57 40.36 79.84C40.07 102.26 58.68 121.12 81.46 121.5C105.73 121.89 125.14 103.8 125.33 80.59C125.52 58 106.88 39.55 83.48 39.26ZM82.69 112.56C64.39 112.45 49.39 97.95 49.36 80.36C49.36 62.56 64.59 47.94 83.08 48.06C101.57 48.18 116.33 62.49 116.25 80.25C116.17 98.39 101.33 112.67 82.69 112.56Z" fill="white"/>
</svg>
