<svg xmlns="http://www.w3.org/2000/svg" viewBox="0 0 196.45 134.04"><defs><style>.cls-1{fill:#022c44;}</style></defs><g id="Capa_2" data-name="Capa 2"><g id="Capa_1-2" data-name="Capa 1"><path class="cls-1" d="M196.32,42.14c-.26-23.69-18.17-41.74-41.8-42C135.7-.11,116.87.07,98,.07c-18.66,0-37.32-.18-56,0C18.08.38.24,18.43.08,42.4,0,58.72,0,75.05.07,91.37.19,115.76,18.39,133.93,42.83,134q55.24.12,110.47,0c24.51,0,42.74-18,43-42.39Q196.59,66.87,196.32,42.14Zm-9.18,49.59c-.12,18.87-14.42,33-33.36,33.1-18.65.07-37.31,0-56,0q-27.23,0-54.46,0c-19.94,0-34-13.91-34.14-33.85Q9,66.77,9.22,42.54C9.37,23.23,23.52,9.2,42.82,9.17q55.47-.08,110.94,0c19,0,33.25,14.21,33.38,33.1Q187.31,67,187.14,91.73Z"/><path class="cls-1" d="M135.32,61.58q-29-14.52-58-29c-5.87-2.93-8.75-1.1-8.78,5.57-.06,9.49,0,19,0,28.47s0,19,0,28.46c0,7.61,2.74,9.33,9.52,6q28.58-14.23,57.09-28.56c2.37-1.18,5.19-2.08,5.22-5.37S137.7,62.77,135.32,61.58ZM94.82,82.41c-4.46,2.23-9,4.37-13.36,6.73-2.72,1.46-3.77,1.14-3.74-2.22.11-13.3.09-26.61,0-39.92,0-2.85.66-3.58,3.42-2.19C95.53,52.09,110,59.25,125.55,67Z"/></g></g></svg>