<svg width="197" height="135" viewBox="0 0 197 135" fill="none" xmlns="http://www.w3.org/2000/svg">
<path d="M196.32 42.14C196.06 18.45 178.15 0.399998 154.52 0.139998C135.7 -0.110002 116.87 0.0699979 98 0.0699979C79.34 0.0699979 60.68 -0.110002 42 0.0699979C18.08 0.379998 0.239997 18.43 0.0799969 42.4C-3.06591e-06 58.72 -3.06591e-06 75.05 0.0699969 91.37C0.189997 115.76 18.39 133.93 42.83 134C79.6567 134.08 116.48 134.08 153.3 134C177.81 134 196.04 116 196.3 91.61C196.493 75.1167 196.5 58.6267 196.32 42.14ZM187.14 91.73C187.02 110.6 172.72 124.73 153.78 124.83C135.13 124.9 116.47 124.83 97.78 124.83C79.6267 124.83 61.4733 124.83 43.32 124.83C23.38 124.83 9.32 110.92 9.18 90.98C9.06 74.84 9.07333 58.6933 9.22 42.54C9.37 23.23 23.52 9.2 42.82 9.17C79.8 9.11666 116.78 9.11666 153.76 9.17C172.76 9.17 187.01 23.38 187.14 42.27C187.253 58.7567 187.253 75.2433 187.14 91.73Z" fill="white"/>
<path d="M135.32 61.58C115.987 51.9 96.6533 42.2333 77.32 32.58C71.45 29.65 68.57 31.48 68.54 38.15C68.48 47.64 68.54 57.15 68.54 66.62C68.54 76.09 68.54 85.62 68.54 95.08C68.54 102.69 71.28 104.41 78.06 101.08C97.1133 91.5933 116.143 82.0733 135.15 72.52C137.52 71.34 140.34 70.44 140.37 67.15C140.4 63.86 137.7 62.77 135.32 61.58ZM94.82 82.41C90.36 84.64 85.82 86.78 81.46 89.14C78.74 90.6 77.69 90.28 77.72 86.92C77.83 73.62 77.81 60.31 77.72 47C77.72 44.15 78.38 43.42 81.14 44.81C95.53 52.09 110 59.25 125.55 67L94.82 82.41Z" fill="white"/>
</svg>
