<svg width="8" height="11" viewBox="0 0 8 11" fill="none" xmlns="http://www.w3.org/2000/svg">
<path d="M5.24607 7.38482L6.95425 5.65871C7.05262 5.55902 7.10772 5.42497 7.10772 5.28537C7.10772 5.14576 7.05262 5.01172 6.95425 4.91202L5.21679 3.21503L2.28848 0.305906C2.18812 0.208184 2.05319 0.153442 1.91267 0.153442C1.77214 0.153442 1.63721 0.208184 1.53686 0.305906L0.209371 1.65381C0.159494 1.70255 0.119879 1.76065 0.0928388 1.82474C0.0657989 1.88884 0.0518799 1.95766 0.0518799 2.02716C0.0518799 2.09666 0.0657989 2.16548 0.0928388 2.22958C0.119879 2.29368 0.159494 2.35178 0.209371 2.40051L2.7863 4.93143C2.83618 4.98017 2.87576 5.03827 2.9028 5.10236C2.92984 5.16646 2.94379 5.23528 2.94379 5.30478C2.94379 5.37428 2.92984 5.4431 2.9028 5.5072C2.87576 5.57129 2.83618 5.6294 2.7863 5.67813L0.238653 8.23817C0.140286 8.33787 0.0851832 8.47192 0.0851832 8.61152C0.0851832 8.75112 0.140286 8.88517 0.238653 8.98487L1.59545 10.3134C1.69581 10.4111 1.83071 10.4658 1.97123 10.4658C2.11175 10.4658 2.24669 10.4111 2.34704 10.3134L5.24607 7.38482Z" fill="white"/>
</svg>
