<svg width="27" height="28" viewBox="0 0 27 28" fill="none" xmlns="http://www.w3.org/2000/svg">
<path d="M11.8125 14.5163L9.62719 12.25L8.4375 13.4838L11.8125 16.9838L18.5625 9.98375L17.3728 8.75L11.8125 14.5163Z" fill="black"/>
<path d="M13.5 26.25L8.28901 23.3686C6.80344 22.549 5.56113 21.3254 4.69541 19.829C3.82968 18.3326 3.37322 16.62 3.37501 14.875V3.5C3.37545 3.03601 3.55339 2.59116 3.86976 2.26307C4.18613 1.93499 4.61509 1.75046 5.06251 1.75H21.9375C22.3849 1.75046 22.8139 1.93499 23.1303 2.26307C23.4466 2.59116 23.6246 3.03601 23.625 3.5V14.875C23.6268 16.62 23.1703 18.3326 22.3046 19.829C21.4389 21.3254 20.1966 22.549 18.711 23.3686L13.5 26.25ZM5.06251 3.5V14.875C5.06111 16.3028 5.43469 17.7041 6.14315 18.9284C6.85161 20.1527 7.86821 21.1538 9.08382 21.8242L13.5 24.2664L17.9162 21.8251C19.1319 21.1546 20.1486 20.1534 20.8571 18.9289C21.5655 17.7044 21.9391 16.303 21.9375 14.875V3.5H5.06251Z" fill="black"/>
</svg>
