<svg xmlns="http://www.w3.org/2000/svg" viewBox="0 0 162.67 161.7"><defs><style>.cls-1{fill:#022c44;}</style></defs><g id="Capa_2" data-name="Capa 2"><g id="Capa_1-2" data-name="Capa 1"><path class="cls-1" d="M162.64,17.19C162.62,6.05,156.46,0,145.19,0Q81.28,0,17.36,0C6.15,0,0,6.14,0,17.26q0,32,0,63.9v26.46c0,13-.06,26,0,38.94.07,10,5.23,15.05,15,15.05,23.3,0,46.61-.09,69.91.09,3.72,0,4.76-.9,4.73-4.68-.15-17.13,0-34.27.1-51.41,0-9.93,0-9.93-9.82-9.93s-9.35,2.4-9.33-10c0-2.72,1.07-3.4,3.55-3.31,3.82.15,7.66-.16,11.48.1,3.34.23,4.21-1,4.21-4.26,0-8.14-.8-16.33.56-24.42,1.54-9.17,6.52-15.58,15.78-18a47.14,47.14,0,0,1,16.67-1.26,3,3,0,0,1,2.84,2.48c1.27,11.9-.4,9.69-6.93,9.86-10.67.29-15.48,5.12-15.61,15.76-.06,5,0,10.85-.07,15,0,3.54.62,4.85,4.61,4.84,4.6,0,8.1,0,12.47-.12,2.85-.07,4.12.33,3.75,3.8-.93,8.88-.18,9.68-7.81,9.45-2-.06-5.9-.4-7.89-.33-3.39.13-5.19.93-5.15,4.59q.34,28.94.2,57.9c0,3.13.93,3.88,4,3.85,14.31-.15,28.63-.13,42.94,0a10.5,10.5,0,0,0,7.6-3.07c3.7-3.41,4.91-7.73,4.91-12.6Q162.64,81.58,162.64,17.19Zm-9.41,127.24c0,7.14-1.79,8.92-8.8,8.95-9.16,0-18.31-.09-27.47.06-3,.05-4.47-.49-4.42-4,.2-13.48.15-27,0-40.45,0-2.81.83-3.85,3.68-3.7,3.82.19,7.66-.07,11.48.08,2.53.1,3.51-.89,3.78-3.37.92-8.44,1.9-16.87,3.11-25.27.47-3.23-.56-4-3.65-4-5.2.1-9.83,0-15,.1-2.61,0-3.33-.83-3.43-3.43-.49-12.84-.57-12.84,12-12.84,10.67,0,10.67,0,10.67-10.58,0-5.16,0-10.32,0-15.48,0-1.59.39-3.22-2.11-3.76a77.8,77.8,0,0,0-26.85-.51C91.36,29,81.88,39.89,80.65,55.26a102.65,102.65,0,0,0-.2,13.47c.18,3.42-1.07,4.07-4.29,4.13-4,.07-8,0-12-.09-2.15-.06-3,.76-3,2.88.05,8.82.09,17.64,0,26.46,0,2.82,1.31,3.3,3.69,3.23,4-.13,8,.06,12-.07,2.48-.08,3.58.62,3.55,3.35q-.15,20.72,0,41.44c0,2.68-1,3.37-3.56,3.36-20-.07-39.95,0-59.93-.07-5.46,0-7.32-2.07-7.32-7.69q0-32.2,0-64.42,0-31.71,0-63.41c0-6.74,1.46-8.19,8.18-8.19H144.64c7,0,8.58,1.55,8.59,8.45Q153.26,81.26,153.23,144.43Z"/></g></g></svg>