<svg width="163" height="162" viewBox="0 0 163 162" fill="none" xmlns="http://www.w3.org/2000/svg">
<g clip-path="url(#clip0_5_8)">
<path d="M162.64 17.19C162.62 6.05 156.46 0 145.19 0C102.583 0 59.9733 0 17.36 0C6.14999 0 -5.69783e-06 6.14 -5.69783e-06 17.26C-5.69783e-06 38.5933 -5.69783e-06 59.8933 -5.69783e-06 81.16V107.62C-5.69783e-06 120.62 -0.0600057 133.62 -5.69783e-06 146.56C0.0699943 156.56 5.22999 161.61 15 161.61C38.3 161.61 61.61 161.52 84.91 161.7C88.63 161.7 89.67 160.8 89.64 157.02C89.49 139.89 89.64 122.75 89.74 105.61C89.74 95.68 89.74 95.68 79.92 95.68C70.1 95.68 70.57 98.08 70.59 85.68C70.59 82.96 71.66 82.28 74.14 82.37C77.96 82.52 81.8 82.21 85.62 82.47C88.96 82.7 89.83 81.47 89.83 78.21C89.83 70.07 89.03 61.88 90.39 53.79C91.93 44.62 96.91 38.21 106.17 35.79C111.607 34.3802 117.253 33.9535 122.84 34.53C123.526 34.5563 124.181 34.8168 124.698 35.2681C125.215 35.7194 125.562 36.3342 125.68 37.01C126.95 48.91 125.28 46.7 118.75 46.87C108.08 47.16 103.27 51.99 103.14 62.63C103.08 67.63 103.14 73.48 103.07 77.63C103.07 81.17 103.69 82.48 107.68 82.47C112.28 82.47 115.78 82.47 120.15 82.35C123 82.28 124.27 82.68 123.9 86.15C122.97 95.03 123.72 95.83 116.09 95.6C114.09 95.54 110.19 95.2 108.2 95.27C104.81 95.4 103.01 96.2 103.05 99.86C103.277 119.153 103.343 138.453 103.25 157.76C103.25 160.89 104.18 161.64 107.25 161.61C121.56 161.46 135.88 161.48 150.19 161.61C151.598 161.634 152.996 161.375 154.302 160.847C155.608 160.32 156.794 159.535 157.79 158.54C161.49 155.13 162.7 150.81 162.7 145.94C162.66 103.033 162.64 60.1167 162.64 17.19ZM153.23 144.43C153.23 151.57 151.44 153.35 144.43 153.38C135.27 153.38 126.12 153.29 116.96 153.44C113.96 153.49 112.49 152.95 112.54 149.44C112.74 135.96 112.69 122.44 112.54 108.99C112.54 106.18 113.37 105.14 116.22 105.29C120.04 105.48 123.88 105.22 127.7 105.37C130.23 105.47 131.21 104.48 131.48 102C132.4 93.56 133.38 85.13 134.59 76.73C135.06 73.5 134.03 72.73 130.94 72.73C125.74 72.83 121.11 72.73 115.94 72.83C113.33 72.83 112.61 72 112.51 69.4C112.02 56.56 111.94 56.56 124.51 56.56C135.18 56.56 135.18 56.56 135.18 45.98C135.18 40.82 135.18 35.66 135.18 30.5C135.18 28.91 135.57 27.28 133.07 26.74C124.217 25.0149 115.132 24.8424 106.22 26.23C91.36 29 81.88 39.89 80.65 55.26C80.2885 59.7408 80.2216 64.2405 80.45 68.73C80.63 72.15 79.38 72.8 76.16 72.86C72.16 72.93 68.16 72.86 64.16 72.77C62.01 72.71 61.16 73.53 61.16 75.65C61.21 84.47 61.25 93.29 61.16 102.11C61.16 104.93 62.47 105.41 64.85 105.34C68.85 105.21 72.85 105.4 76.85 105.27C79.33 105.19 80.43 105.89 80.4 108.62C80.3 122.433 80.3 136.247 80.4 150.06C80.4 152.74 79.4 153.43 76.84 153.42C56.84 153.35 36.89 153.42 16.91 153.35C11.45 153.35 9.58999 151.28 9.58999 145.66C9.58999 124.193 9.58999 102.72 9.58999 81.24C9.58999 60.1 9.58999 38.9633 9.58999 17.83C9.58999 11.09 11.05 9.64 17.77 9.64H144.64C151.64 9.64 153.22 11.19 153.23 18.09C153.25 60.2033 153.25 102.317 153.23 144.43Z" fill="white"/>
</g>
<defs>
<clipPath id="clip0_5_8">
<rect width="162.67" height="161.7" fill="white"/>
</clipPath>
</defs>
</svg>
