<svg xmlns="http://www.w3.org/2000/svg" viewBox="0 0 168.1 167.95"><defs><style>.cls-1{fill:#022C44;}</style></defs><title>icowpp</title><g id="Capa_2" data-name="Capa 2"><g id="Capa_1-2" data-name="Capa 1"><path class="cls-1" d="M168.1,83.16c0,43.66-33.39,79.76-77.07,83.61A80.84,80.84,0,0,1,47.86,159a11,11,0,0,0-8.17-.78c-11.58,3.14-23.19,6.13-34.8,9.14-4.95,1.28-5.5.8-4.21-4.11q4.39-16.68,9-33.28a11.35,11.35,0,0,0-.8-8.61C-19.81,62.3,24.5-3.83,90.06.17,132.51,2.76,168.08,40.59,168.1,83.16ZM83.72,152.34c43.62,0,76.64-39.87,68.22-82-5.5-27.48-34.15-58.71-74.75-55C33.56,19.19,2.74,65.66,19.34,106c5.24,12.76,8.09,24,2.41,36.73-1.72,3.84.47,4.7,4,3.74,5.3-1.45,10.67-2.66,16-4.12a9.78,9.78,0,0,1,8.08,1A65.3,65.3,0,0,0,83.72,152.34Z"/><path class="cls-1" d="M56.12,45.12c3.85-.68,6.1,1.17,7.46,4.47,1.59,3.84,3,7.79,4.85,11.48,2.54,5,1.17,9.12-2.47,12.61-2.74,2.64-2.4,4.78-.63,7.83,6,10.29,15.18,16.5,25.48,21.62,3.48,1.73,5.24-.28,7.21-2.4,7.45-8,7.45-8,17.52-3.16,1.35.65,2.68,1.35,4,2,8,4.09,8.83,12.91,1.53,18.73-6.66,5.31-14.22,7.11-22.52,4.88-25.68-6.88-43-23.82-54.92-46.72C39,67.62,40,58.39,46,50.06,48.54,46.6,51.7,44.44,56.12,45.12Z"/></g></g></svg>