<?xml version="1.0" encoding="UTF-8"?><svg id="Capa_2" xmlns="http://www.w3.org/2000/svg" viewBox="0 0 702.89 271.63"><defs><style>.cls-1{fill:#fff;}</style></defs><g id="Capa_1-2"><g><path class="cls-1" d="M62.92,193.53l-1.07,3.92c-2.33,8.54-8.22,12.87-17.51,12.87-12.59,0-20.1-10.04-20.1-26.85s7.51-26.54,20.1-26.54c9.05,0,15.27,4.56,17.51,12.85l1.06,3.93h25.07l-1.49-6.51c-4.78-20.9-20.15-32.89-42.15-32.89-26.1,0-44.33,20.21-44.33,49.15s17.82,49.46,44.33,49.46c21.1,0,37.25-12.58,42.14-32.83l1.59-6.57h-25.14Z"/><path class="cls-1" d="M177.44,137.08c-7.08-8.17-18.58-15.11-34.18-15.11-28.54,0-49.25,23.41-49.25,55.66s20.64,56.36,49.08,56.36c11.31,0,20.5-3.7,27.41-8.9v7.32h27.94V121.31l-21.01,15.77Zm-31.21,70.11c-14.2,0-24.11-12.16-24.11-29.56,0-20.06,12.11-29.03,24.11-29.03,14.29,0,24.28,12.01,24.28,29.21s-9.98,29.38-24.28,29.38Z"/><path class="cls-1" d="M257.6,160.95c-14.21-4.19-20.9-6.89-20.9-13.53s7.34-9.43,14.21-9.43c9.84,0,15.83,4.92,16.41,13.49l.34,4.96h27.19l-.3-5.6c-1.23-23.35-18.15-38.44-43.1-38.44s-42.01,14.73-42.01,35.03c0,26.35,22.58,32.79,39.07,37.48,13.64,3.89,20.07,6.34,20.07,12.03,0,6.32-5.94,10.41-15.12,10.41-10.53,0-17.52-5.06-18.24-13.2l-.43-4.85h-27.66l.32,5.62c1.26,22.39,20.26,38.03,46.2,38.03,24.24,0,41.83-15.14,41.83-36.1-.48-24.85-22.09-31.22-37.88-35.88Z"/><path class="cls-1" d="M399.75,121.5c-8.15-9.98-21.88-18.69-40.76-18.69-33.33,0-57.52,27.41-57.52,65.17s24.11,66.01,57.32,66.01c14.3,0,25.68-5.07,33.93-11.93v10.05h30.86V102.45l-23.84,19.05Zm-37.22,82.98c-17.66,0-30-15.01-30-36.5,0-24.78,15.07-35.87,30-35.87,17.78,0,30.19,14.84,30.19,36.08s-12.42,36.29-30.19,36.29Z"/><polygon class="cls-1" points="529.32 91.1 498.93 173.42 468.17 97.49 436.44 101.75 482.82 209.96 459.11 271.63 493.63 271.63 566.06 84.72 529.32 91.1"/><path class="cls-1" d="M675.96,100.7c-11.03-15.47-29.28-24.49-50.21-24.49-40.28,0-68.41,32.01-68.41,77.84s28.67,78.88,68.16,78.88c17.54,0,33.23-6.43,44.42-17.76v15.43h32.96V78.07l-26.93,22.62Zm-6.04,53.61c0,27.87-16.37,47.33-39.81,47.33s-39.56-19.57-39.56-47.59c0-32.34,19.87-46.81,39.56-46.81,23.44,0,39.81,19.36,39.81,47.07Z"/><polygon class="cls-1" points="207.77 0 1.61 65.12 1.63 94.87 210.52 29.71 424.02 56.55 424 26.81 207.77 0"/></g></g></svg>