<svg width="56" height="52" viewBox="0 0 56 52" fill="none" xmlns="http://www.w3.org/2000/svg">
<path d="M39.9939 34.6087C39.9812 34.5436 39.963 34.4797 39.9394 34.4177C38.8364 31.6893 37.7138 30.1653 36.1898 29.3C33.5979 27.8228 22.4545 27.854 19.8587 29.3468C18.2996 30.2472 17.1614 31.8257 16.2143 34.4605C16.2002 34.5064 16.1899 34.5533 16.1832 34.6008C15.049 34.5658 13.79 34.6281 12.5778 36.0781C11.0188 37.9373 11.9308 40.7007 12.5778 42.7041C12.6636 42.973 12.7493 43.2303 12.8234 43.4836C13.0031 44.1504 13.3073 44.7773 13.7198 45.3311C14.0811 45.8083 14.5892 46.1534 15.1659 46.3133V48.687C15.1659 49.3517 15.4299 49.9892 15.8999 50.4592C16.3699 50.9292 17.0073 51.1932 17.672 51.1932H20.8097C21.4743 51.1932 22.1118 50.9292 22.5818 50.4592C23.0518 49.9892 23.3158 49.3517 23.3158 48.687V46.4108H32.8223V48.687C32.8233 49.3514 33.0877 49.9883 33.5575 50.458C34.0273 50.9278 34.6641 51.1922 35.3285 51.1932H38.4466C39.1116 51.1932 39.7495 50.9293 40.2201 50.4594C40.6908 49.9895 40.9556 49.352 40.9567 48.687V46.3484C40.9567 46.3211 40.9567 46.2978 40.9567 46.2705C41.4559 46.0832 41.8903 45.7556 42.2078 45.3272C42.5958 44.7839 42.8957 44.1828 43.0965 43.546C43.1783 43.3199 43.268 43.0705 43.3655 42.8132C44.145 40.7865 45.1778 38.0074 43.5681 36.0936C42.3325 34.5852 41.1438 34.5775 39.9939 34.6087ZM21.0241 31.3736C22.9261 30.2822 33.1341 30.2511 35.0322 31.3307C35.9521 31.853 36.7004 32.8586 37.4839 34.6243H18.6581C19.3363 32.9327 20.0808 31.9153 21.0241 31.3736ZM20.9928 48.6909C20.9918 48.735 20.9739 48.7771 20.9427 48.8083C20.9115 48.8395 20.8694 48.8575 20.8253 48.8585H17.6876C17.6435 48.8575 17.6014 48.8395 17.5702 48.8083C17.539 48.7771 17.521 48.735 17.5201 48.6909V46.4147H20.9928V48.6909ZM38.4817 48.8585H35.3636C35.3201 48.8565 35.279 48.8381 35.2486 48.807C35.2182 48.7759 35.2007 48.7344 35.1998 48.6909V46.4147H38.6688V48.6909C38.6683 48.7145 38.663 48.7377 38.6532 48.7591C38.6434 48.7806 38.6292 48.7997 38.6117 48.8155C38.5941 48.8312 38.5735 48.8431 38.5512 48.8505C38.5288 48.8579 38.5052 48.8606 38.4817 48.8585ZM41.2101 41.9791C41.1048 42.252 41.0074 42.5131 40.9216 42.7587C40.7985 43.1578 40.6186 43.5371 40.3876 43.8851C40.2395 44.08 40.1576 44.08 40.0953 44.08H15.8909C15.8207 44.08 15.7271 44.08 15.5712 43.8812C15.3445 43.5563 15.1781 43.1932 15.0801 42.8093C15.0022 42.556 14.9125 42.2831 14.819 41.9947C14.3552 40.5798 13.6497 38.444 14.3785 37.5826C14.9476 36.9005 15.3062 36.9122 16.3625 36.9511C16.6002 36.9511 16.8535 36.9511 17.1186 36.9511H39.3119C39.5457 36.9511 39.764 36.9511 39.9744 36.9511C40.9956 36.92 41.2413 36.9161 41.8103 37.5904C42.5431 38.4518 41.7323 40.576 41.2062 41.9791H41.2101Z" fill="#022C44"/>
<path d="M21.1055 40.5995L17.4028 39.3055C17.1097 39.2021 16.7876 39.2194 16.5072 39.3535C16.2269 39.4876 16.0114 39.7277 15.908 40.0207C15.8047 40.3138 15.822 40.6359 15.9561 40.9162C16.0902 41.1965 16.3302 41.4121 16.6232 41.5155L20.326 42.8095C20.4515 42.8527 20.5831 42.8751 20.7158 42.8757C20.9939 42.8789 21.2641 42.7828 21.4778 42.6046C21.6915 42.4265 21.8346 42.1781 21.8816 41.9039C21.9285 41.6297 21.8761 41.3478 21.7339 41.1087C21.5917 40.8696 21.3689 40.6891 21.1055 40.5995Z" fill="#022C44"/>
<path d="M38.7817 39.3055L35.075 40.5995C34.8117 40.6891 34.5888 40.8697 34.4466 41.1087C34.3044 41.3478 34.2521 41.6297 34.299 41.9039C34.346 42.1781 34.4891 42.4265 34.7028 42.6047C34.9164 42.7828 35.1866 42.8789 35.4648 42.8758C35.5975 42.8754 35.7292 42.853 35.8546 42.8095L39.5573 41.5155C39.7024 41.4643 39.836 41.385 39.9505 41.2822C40.065 41.1794 40.1581 41.055 40.2245 40.9162C40.2909 40.7774 40.3293 40.6269 40.3375 40.4733C40.3458 40.3196 40.3237 40.1659 40.2725 40.0207C40.2214 39.8756 40.142 39.742 40.0392 39.6276C39.9364 39.5131 39.812 39.42 39.6732 39.3535C39.5344 39.2871 39.3839 39.2487 39.2303 39.2404C39.0766 39.2322 38.9229 39.2544 38.7778 39.3055H38.7817Z" fill="#022C44"/>
<path d="M54.6919 0.37166C55.604 0.98749 55.8301 1.84104 55.8301 2.9168C55.7989 18.1697 55.7924 33.4212 55.8106 48.6715C55.8106 50.2305 55.3234 50.9477 54.2749 50.9672C53.2265 50.9867 52.673 50.2344 52.673 48.6286C52.673 34.8049 52.673 20.9799 52.673 7.15355C52.7418 6.75846 52.693 6.35185 52.5326 5.98426C50.9735 7.51604 49.4808 9.01274 47.9841 10.5172C45.8209 12.696 43.6967 14.8943 41.4945 17.0497C41.3135 17.2091 41.1705 17.407 41.0761 17.629C40.9817 17.8509 40.9381 18.0911 40.9488 18.3321C40.9488 23.6914 40.9488 22.8183 40.9488 28.1815C40.9632 28.4909 40.9541 28.801 40.9216 29.1091C40.8978 29.3618 40.7758 29.5952 40.582 29.7591C40.3882 29.9231 40.1379 30.0045 39.8847 29.9861C39.6503 30.0017 39.4183 29.931 39.2324 29.7875C39.0465 29.6439 38.9195 29.4373 38.8753 29.2066C38.8207 28.8704 38.801 28.5295 38.8168 28.1893C38.8168 22.982 38.8168 24.007 38.8168 18.7998C38.8168 18.0202 38.6765 17.685 37.7683 17.6889C31.254 17.7305 24.7423 17.7305 18.2332 17.6889C17.4108 17.6889 17.1925 17.8994 17.1964 18.7218C17.2354 23.9291 17.2159 22.9001 17.2159 28.1074C17.2335 28.3864 17.2335 28.6663 17.2159 28.9454C17.2131 29.0785 17.1832 29.2097 17.1281 29.3309C17.073 29.4522 16.9939 29.5609 16.8955 29.6506C16.797 29.7403 16.6814 29.809 16.5555 29.8526C16.4297 29.8962 16.2964 29.9138 16.1636 29.9043C16.0308 29.9116 15.8977 29.8924 15.7724 29.8478C15.6471 29.8032 15.5319 29.734 15.4335 29.6444C15.3352 29.5548 15.2558 29.4465 15.1997 29.3258C15.1437 29.2051 15.1123 29.0745 15.1073 28.9415C15.0878 28.6638 15.0878 28.3851 15.1073 28.1074C15.1073 22.713 15.1073 23.555 15.1073 18.1606C15.1256 17.8734 15.0762 17.5858 14.9632 17.3212C14.8501 17.0565 14.6765 16.822 14.4564 16.6366C10.9485 13.4444 7.464 10.2249 3.96779 7.01715C3.74952 6.81837 3.57797 6.53773 3.22718 6.47537C3.01281 6.82226 3.12203 7.19644 3.12203 7.55112C3.12203 21.3229 3.12203 35.0868 3.12203 48.843C3.12203 49.4354 3.12198 50.0123 2.68155 50.4956C1.93709 51.2751 1.06406 51.1192 0 50.0513C0 33.759 0 17.4655 0 1.17065C0 0.496356 0.148046 0.363861 0.810649 0.367758C18.7581 0.378152 36.7185 0.379455 54.6919 0.37166ZM49.8511 3.9809H5.49174C6.27128 5.12681 7.14435 5.69197 8.60987 5.68418C21.4046 5.61402 34.2032 5.61402 47.0057 5.68418C48.3894 5.69197 49.1378 5.08394 49.8511 3.9809ZM45.7468 8.34236H9.86491C10.1001 8.78643 10.4602 9.15192 10.9007 9.39366C11.3412 9.6354 11.843 9.7428 12.3439 9.70264C22.6649 9.65587 32.9872 9.65587 43.3108 9.70264C43.8067 9.74824 44.3048 9.64273 44.7396 9.39994C45.1744 9.15716 45.5255 8.78846 45.7468 8.34236ZM42.6287 11.6203H13.065C13.6379 12.3998 14.1797 12.8403 15.1658 12.8364C23.5873 12.7948 32.0115 12.7948 40.4382 12.8364C41.4399 12.8403 42.1142 12.5674 42.6443 11.6203H42.6287ZM39.9003 14.5201H16.0037C16.1742 14.8636 16.4433 15.1485 16.7766 15.338C17.1099 15.5276 17.4923 15.6133 17.8746 15.5842C24.6306 15.5504 31.3865 15.5504 38.1425 15.5842C38.5091 15.6048 38.8734 15.5142 39.1878 15.3244C39.5021 15.1345 39.7518 14.8542 39.9042 14.5201H39.9003Z" fill="#022C44"/>
</svg>
