<svg width="361" height="175" viewBox="0 0 361 175" fill="none" xmlns="http://www.w3.org/2000/svg">
<g filter="url(#filter0_d_1445_494)">
<path d="M58.476 40.9128C59.5972 40.1068 60.1772 38.871 60.2416 37.165H358.119V34.4784H60.0097C59.6875 32.5978 59.0559 30.3679 58.3213 27.8828C57.6511 25.5992 56.5041 24.1753 54.8931 23.6245C52.1865 22.7111 49.48 24.8604 49.3511 24.9678L42.9973 30.7037C42.5333 30.4216 42.0178 30.2201 41.4765 30.0858V0.881348H38.8988V30.0992C38.3446 30.2336 37.8033 30.4485 37.3265 30.7575L30.8566 24.9141C30.5731 24.6857 27.9697 22.7648 25.3791 23.6245C23.781 24.1618 22.634 25.5992 21.9509 27.8828C21.2163 30.3679 20.5847 32.5978 20.2625 34.4784H2V37.165H20.0563C20.1208 38.8844 20.7007 40.1068 21.822 40.9128C22.3504 41.2889 23.4717 41.7188 26.9386 41.5173C23.4846 43.895 19.8372 47.7637 18.2778 53.8891C18.1102 54.5742 18.3164 55.2862 18.832 55.7429C19.3475 56.1996 20.0434 56.3071 20.6621 56.025C21.474 55.6489 22.8402 55.0847 24.7992 54.4936C25.276 56.0653 26.2684 58.5101 28.2919 60.7668C28.7301 61.2639 29.4389 61.4519 30.0447 61.2639C30.6762 61.0624 31.153 60.5251 31.269 59.8534C32.4805 52.922 35.1742 44.3517 38.8988 41.974V171.027H41.4765V42.0412C45.1496 44.4994 47.8046 52.9891 49.0032 59.8534C49.1192 60.5251 49.596 61.0758 50.2275 61.2639C50.8333 61.4519 51.5421 61.2639 51.9803 60.7668C54.0038 58.5235 54.9962 56.0653 55.473 54.4936C57.432 55.0847 58.7982 55.6489 59.6101 56.0384C60.2288 56.3205 60.9247 56.213 61.4403 55.7563C61.9558 55.2996 62.1749 54.5877 61.9944 53.9026C60.435 47.7771 56.7876 43.9218 53.3336 41.5307C56.8134 41.7457 57.9218 41.3024 58.4502 40.9263L58.476 40.9128ZM53.5398 51.1488L53.3078 52.5996C53.3078 52.5996 52.8825 55.0444 51.2199 57.516C50.2404 52.6936 47.9592 44.0965 43.7319 40.4158C43.7963 40.3621 43.8479 40.3083 43.9123 40.2546C46.8251 40.8994 55.7437 43.5994 59.0173 52.8548C57.9862 52.4518 56.6072 51.9816 54.9059 51.5115L53.5398 51.1354V51.1488ZM27.0031 52.5996L26.7711 51.1488L25.4049 51.5249C23.7037 51.9951 22.3246 52.4652 21.2936 52.8682C24.5672 43.5994 33.4987 40.9128 36.4759 40.2546C36.5274 40.2949 36.5661 40.3352 36.6176 40.3755C32.3645 44.0427 30.0704 52.6667 29.0909 57.516C27.4284 55.0444 27.0031 52.6264 27.0031 52.5996ZM43.2808 35.8217C43.2808 37.5949 41.9018 39.0322 40.2005 39.0322C38.4993 39.0322 37.1203 37.5949 37.1203 35.8217C37.1203 34.0485 38.4993 32.6112 40.2005 32.6112C41.9018 32.6112 43.2808 34.0485 43.2808 35.8217ZM57.0196 38.6964C56.3881 39.1397 51.8514 38.9113 45.5105 37.8098C45.7425 37.165 45.8584 36.4934 45.8584 35.8217C45.8584 34.653 45.5234 33.5515 44.8918 32.5709L50.9751 27.0634C51.4648 26.6872 52.9727 25.8007 54.1069 26.1768C54.8544 26.432 55.4473 27.2649 55.8597 28.6619C57.4063 33.9142 58.3858 37.7023 57.0067 38.6964M23.2784 38.6964C21.8993 37.7023 22.8917 33.9142 24.4254 28.6619C24.8378 27.2649 25.4178 26.432 26.1653 26.1768C26.3586 26.1096 26.5649 26.0828 26.7711 26.0828C27.6861 26.0828 28.7043 26.6201 29.2585 27.0231L35.4577 32.6246C34.852 33.5784 34.5297 34.6799 34.5297 35.8083C34.5297 36.4799 34.6457 37.1381 34.8777 37.7829C28.6785 38.8576 23.9228 39.1262 23.2784 38.6829" fill="white"/>
</g>
<defs>
<filter id="filter0_d_1445_494" x="0.0215634" y="0.881348" width="360.076" height="174.102" filterUnits="userSpaceOnUse" color-interpolation-filters="sRGB">
<feFlood flood-opacity="0" result="BackgroundImageFix"/>
<feColorMatrix in="SourceAlpha" type="matrix" values="0 0 0 0 0 0 0 0 0 0 0 0 0 0 0 0 0 0 127 0" result="hardAlpha"/>
<feOffset dy="1.97844"/>
<feGaussianBlur stdDeviation="0.989218"/>
<feComposite in2="hardAlpha" operator="out"/>
<feColorMatrix type="matrix" values="0 0 0 0 0 0 0 0 0 0 0 0 0 0 0 0 0 0 0.15 0"/>
<feBlend mode="normal" in2="BackgroundImageFix" result="effect1_dropShadow_1445_494"/>
<feBlend mode="normal" in="SourceGraphic" in2="effect1_dropShadow_1445_494" result="shape"/>
</filter>
</defs>
</svg>
