<svg width="126" height="131" viewBox="0 0 126 131" fill="none" xmlns="http://www.w3.org/2000/svg">
<path d="M9.71641 130.676C11.3618 121.188 12.798 112.687 14.3496 104.202C14.5514 103.495 14.5792 102.747 14.4303 102.026C14.2815 101.306 13.9608 100.636 13.498 100.079C-14.539 65.119 3.05537 12.7499 48.2248 2.57602C74.5514 -3.35497 97.3779 4.49021 113.897 27.1591C135.352 56.603 125.444 98.2707 93.5747 115.438C76.0742 124.873 58.0035 125.989 39.4998 119.086C38.6219 118.724 37.6805 118.56 36.7376 118.606C35.7948 118.651 34.8718 118.905 34.0296 119.349C26.1561 123.08 18.261 126.69 9.71641 130.676ZM18.9683 118.347C24.3086 115.905 29.0717 113.916 33.6759 111.565C35.9564 110.389 37.775 110.562 40.0844 111.565C56.0694 118.264 72.0039 117.97 87.6714 110.412C122.312 93.7113 128.864 47.635 100.243 22.3284C91.4811 14.6512 80.7579 9.82191 69.3974 8.43709C58.0369 7.05227 46.5368 9.1725 36.3172 14.536C4.6647 31.2663 -2.6747 71.3815 20.5415 97.4417C21.1337 98.048 21.5597 98.8086 21.7754 99.6448C21.9912 100.481 21.9887 101.362 21.7683 102.197C20.8157 107.329 19.9642 112.484 18.9394 118.347H18.9683Z" fill="#022C44"/>
<path d="M79.1042 93.5227C73.7947 93.316 68.5968 91.8715 63.8913 89.2949C51.4353 82.7534 41.2957 73.5668 34.7863 60.5291C30.9686 52.9024 30.247 45.1853 35.7678 37.9204C38.3153 34.5517 41.4473 33.5192 44.6299 35.0039C45.4178 35.2821 46.1036 35.8087 46.5928 36.5111C48.6063 40.9198 50.6919 45.321 52.3229 49.8879C53.2322 52.4427 51.2693 54.4096 49.6599 56.0902C47.7908 58.0195 47.7259 59.6624 49.2558 61.9685C54.0261 69.1656 59.9438 74.7801 67.7667 78.1865C70.6173 79.4299 72.407 78.7064 74.204 76.2346C78.8588 69.8363 78.9309 69.8891 86.0683 73.3331C87.8147 74.1696 89.5684 74.9986 91.3004 75.8653C94.6634 77.5308 95.3923 79.4827 94.0572 83.1227C91.6829 89.6189 86.1549 93.4548 79.1042 93.5227Z" fill="#022C44"/>
</svg>
