<svg width="447" height="127" viewBox="0 0 447 127" fill="none" xmlns="http://www.w3.org/2000/svg">
<g clip-path="url(#clip0_1331_406)">
<path d="M28.6249 87.3204L28.1366 89.0921C27.0766 92.9425 24.397 94.8972 20.169 94.8972C14.4405 94.8972 11.0224 90.3676 11.0224 82.7848C11.0224 75.202 14.4405 70.8083 20.169 70.8083C24.2838 70.8083 27.1183 72.8694 28.1366 76.6076L28.619 78.3793H40.0284L39.3496 75.4265C37.1701 65.9775 30.1791 60.5857 20.169 60.5857C8.29509 60.5857 0 69.7098 0 82.7671C0 96.1138 8.10454 105.084 20.169 105.084C29.7682 105.084 37.1165 99.4091 39.3436 90.2732L40.0642 87.3204H28.6249Z" fill="white"/>
<path d="M80.7238 61.8435C78.7883 59.6539 76.3943 57.9098 73.7088 56.7327C71.0234 55.5556 68.1113 54.9739 65.1757 55.0284C52.1942 55.0284 42.7736 65.5935 42.7736 80.1449C42.7736 94.8794 52.1644 105.574 65.1043 105.574C69.5926 105.63 73.9745 104.219 77.5737 101.559V104.866H90.2813V54.739L80.7238 61.8435ZM66.5215 93.4798C60.0605 93.4798 55.5527 87.9994 55.5527 80.1449C55.5527 71.0916 61.0609 67.0404 66.5215 67.0404C73.0242 67.0404 77.5677 72.4617 77.5677 80.2217C77.5677 87.9817 73.0302 93.4798 66.5215 93.4798Z" fill="white"/>
<path d="M117.197 72.6153C110.736 70.7255 107.669 69.509 107.669 66.509C107.669 63.3731 111.01 62.2569 114.136 62.2569C118.614 62.2569 121.336 64.4715 121.598 68.3397L121.753 70.5779H134.127L133.99 68.0503C133.43 57.5147 125.736 50.7056 114.381 50.7056C103.31 50.7056 95.2715 57.3553 95.2715 66.509C95.2715 78.4029 105.544 81.2729 113.047 83.4226C119.252 85.1942 122.175 86.2809 122.175 88.8498C122.175 91.7022 119.478 93.5448 115.298 93.5448C110.504 93.5448 107.324 91.2652 106.997 87.586L106.8 85.401H94.2413L94.3842 87.9344C94.9797 98.0389 103.602 105.096 115.405 105.096C126.427 105.096 134.46 98.2634 134.46 88.8026C134.216 77.5938 124.379 74.7473 117.197 72.6153Z" fill="white"/>
<path d="M181.867 54.8158C178.163 50.3158 171.916 46.3826 163.323 46.3826C148.162 46.3826 137.158 58.7844 137.158 75.7925C137.158 93.0487 148.121 105.574 163.234 105.574C168.862 105.652 174.335 103.743 178.675 100.189V104.724H192.716V46.2231L181.867 54.8158ZM164.937 92.2574C156.898 92.2574 151.289 85.4836 151.289 75.7925C151.289 64.6132 158.143 59.6053 164.937 59.6053C173.024 59.6053 178.675 66.3023 178.675 75.8871C178.675 85.4718 173.024 92.2574 164.937 92.2574Z" fill="white"/>
<path d="M303.012 51.8924C299.088 47.1266 292.484 42.9749 283.397 42.9749C267.36 42.9749 255.719 56.0559 255.719 74.0739C255.719 92.3281 267.319 105.574 283.301 105.574C289.252 105.653 295.038 103.636 299.63 99.8814V104.677H314.481V42.8037L303.012 51.8924ZM285.1 91.46C276.602 91.46 270.665 84.2965 270.665 74.0444C270.665 62.2332 277.918 56.9181 285.1 56.9181C293.657 56.9181 299.63 64.0048 299.63 74.1388C299.63 84.2728 293.657 91.4895 285.1 91.4895V91.46Z" fill="white"/>
<path d="M94.5271 0L0.732422 29.3863L0.744332 42.8038L95.7776 13.4057L192.913 25.5181L192.901 12.0947L94.5271 0Z" fill="white"/>
<path d="M447 103.927C441.009 103.927 435.013 103.868 429.028 104.074C427.76 104.184 426.485 103.958 425.334 103.418C424.183 102.879 423.197 102.045 422.478 101.003C417.684 94.8203 412.694 88.7789 407.77 82.6961C407.12 81.8929 406.424 81.1312 405.644 80.2335C404.453 81.2847 404.923 82.5131 404.917 83.5525C404.864 89.3813 404.852 95.2042 404.917 101.033C404.917 103.242 404.048 104.222 401.785 104.157C398.968 104.08 396.146 104.157 393.329 104.157C387.815 104.157 387.815 104.157 387.803 98.5113C387.771 87.4403 387.741 76.3712 387.714 65.3041C387.714 51.7862 387.714 38.2683 387.595 24.7562C387.559 21.7562 388.345 20.1499 391.626 20.1617C394.678 20.1746 397.729 20.0307 400.767 19.7306C403.905 19.4235 404.858 20.7286 404.84 23.7228C404.75 36.0714 404.84 48.4259 404.881 60.7745C404.881 61.8907 404.566 63.0659 405.405 64.5541C408.341 60.6978 411.134 57.0186 413.945 53.3335C415.999 50.6405 418.387 48.1366 420.06 45.231C422.859 40.3707 426.759 38.6935 432.28 39.225C435.745 39.5557 439.3 38.8766 442.82 38.7407C443.814 38.7053 445.148 38.2565 445.72 39.3313C446.291 40.4061 445.094 41.1974 444.451 41.9593C436.972 50.8177 429.618 59.7293 421.888 68.3455C419.334 71.192 419.507 72.8456 422.025 75.4795C430.493 84.3379 438.699 93.4798 447.036 102.504L447 103.927Z" fill="white"/>
<path d="M215.732 53.5579C219.549 50.1268 223.634 47.4397 228.833 47.0618C238.074 46.3649 245.649 50.4221 249.71 59.1092C254.796 69.9932 254.641 81.1253 248.811 91.6609C241.665 104.612 228.064 107.015 216.452 97.7968C216.244 97.6948 216.021 97.6252 215.791 97.5901C214.958 98.6413 215.375 99.8874 215.369 101.021C215.321 108.793 214.577 127.006 214.577 127.006H201.815C201.815 127.006 201.887 122.872 201.887 117.917C201.887 96.4562 201.929 74.9953 201.815 53.5461C201.815 51.9339 201.815 48.55 201.815 48.55H215.232C215.232 48.55 215.482 52.2055 215.732 53.5579ZM238.926 73.9618C238.97 73.3622 238.97 72.7602 238.926 72.1606C238.271 65.5581 234.013 60.8454 228.398 60.4734C222.282 60.0659 217.244 64.0817 215.768 70.6901C215.097 73.8021 215.071 77.0167 215.69 80.1391C216.691 85.3596 220.716 89.3281 225.218 89.8478C230.744 90.4856 235.097 87.8754 237.539 82.4363C238.71 79.7714 239.187 76.8573 238.926 73.9618Z" fill="white"/>
<path d="M367.836 64.2176C366.425 64.2176 365.014 64.1468 363.608 64.2176C361.78 64.3298 360.571 63.7688 359.696 62.003C357.588 57.7628 353.938 56.2214 349.263 56.3454C344.589 56.4694 341.075 58.5896 339.092 62.6644C335.591 69.887 335.597 77.3339 338.854 84.6274C340.724 88.8262 344.327 90.9464 348.948 91.0704C353.658 91.1944 357.487 89.47 359.613 85.0821C360.428 83.4049 361.471 82.6195 363.376 82.59C367.247 82.5368 371.117 82.2947 374.988 82.147C377.209 82.0584 378.21 82.7376 377.549 85.2534C374.774 96.0134 363.96 104.683 352.777 105.551C329.987 107.323 320.37 90.096 320.46 75.2139C320.531 63.32 323.919 53.1091 334.358 46.3177C347.399 37.8432 370.23 39.6917 377.007 59.3455C378.335 63.196 378.198 63.3908 374.166 63.8751C373.703 63.9447 373.236 63.9881 372.767 64.005C371.123 64.005 369.48 64.005 367.836 64.005V64.2176Z" fill="white"/>
</g>
<defs>
<clipPath id="clip0_1331_406">
<rect width="447" height="127" fill="white"/>
</clipPath>
</defs>
</svg>
