<svg width="374" height="127" viewBox="0 0 374 127" fill="none" xmlns="http://www.w3.org/2000/svg">
<g clip-path="url(#clip0_1331_276)">
<path d="M28.7054 87.6995L28.2157 89.4789C27.1528 93.352 24.4656 95.3093 20.2257 95.3093C14.4811 95.3093 11.0534 90.76 11.0534 83.1443C11.0534 75.5285 14.4811 71.1157 20.2257 71.1157C24.3521 71.1157 27.1946 73.1857 28.2157 76.9402L28.6994 78.7196H40.141L39.4602 75.7539C37.2746 66.2639 30.264 60.8487 20.2257 60.8487C8.31842 60.8487 0 70.0125 0 83.1265C0 96.5311 8.12733 105.541 20.2257 105.541C29.8519 105.541 37.2209 99.8408 39.4542 90.6651L40.1768 87.6995H28.7054Z" fill="white"/>
<path d="M80.9507 62.118C79.0112 59.917 76.6108 58.1634 73.9176 56.9801C71.2244 55.7968 68.3034 55.2122 65.3589 55.2674C52.3409 55.2674 42.8939 65.8784 42.8939 80.493C42.8939 95.3212 52.311 106.033 65.2873 106.033C69.7882 106.089 74.1824 104.671 77.7918 102V105.315H90.5351V54.9708L80.9507 62.118ZM66.7085 93.8858C60.2294 93.8858 55.7089 88.3816 55.7089 80.493C55.7089 71.4004 61.2326 67.3375 66.7085 67.3375C73.2295 67.3375 77.7858 72.7765 77.7858 80.5701C77.7858 88.3638 73.2355 93.8858 66.7085 93.8858Z" fill="white"/>
<path d="M117.527 72.9485C111.048 71.0505 107.972 69.8287 107.972 66.8156C107.972 63.6661 111.322 62.545 114.457 62.545C118.948 62.545 121.677 64.7693 121.94 68.6543L122.095 70.9022H134.504L134.367 68.3636C133.805 57.7823 126.09 50.9435 114.702 50.9435C103.601 50.9435 95.5393 57.6221 95.5393 66.8156C95.5393 78.7611 105.84 81.6437 113.364 83.8027C119.587 85.5821 122.519 86.6793 122.519 89.2535C122.519 92.1183 119.814 93.9985 115.622 93.9985C110.815 93.9985 107.626 91.7091 107.297 88.0139L107.1 85.8193H94.5062L94.6496 88.3638C95.2467 98.5122 103.894 105.6 115.729 105.6C126.783 105.6 134.838 98.7375 134.838 89.2357C134.593 77.9307 124.728 75.0422 117.527 72.9485Z" fill="white"/>
<path d="M182.378 55.0539C178.664 50.5343 172.4 46.59 163.783 46.59C148.579 46.59 137.543 59.01 137.543 76.1217C137.543 93.4528 148.537 106.033 163.693 106.033C169.336 106.11 174.823 104.195 179.177 100.63V105.179H193.258V46.424L182.378 55.0539ZM165.401 92.658C157.339 92.658 151.714 85.8608 151.714 76.1217C151.714 64.8938 158.587 59.8641 165.401 59.8641C173.51 59.8641 179.177 66.5902 179.177 76.2166C179.177 85.8431 173.51 92.658 165.401 92.658Z" fill="white"/>
<path d="M94.6555 0L0.597168 29.5139L0.609111 42.9897L95.9095 13.4639L193.318 25.6289L193.306 12.1472L94.6555 0Z" fill="white"/>
<path d="M321.396 98.269C316.408 95.6452 312.277 91.6615 309.489 86.7861C306.599 81.8117 305.154 75.9932 305.154 69.3304C305.154 62.7467 306.619 56.9479 309.549 51.934C312.365 47.0264 316.536 43.0215 321.57 40.3918C326.882 37.7499 332.74 36.3744 338.681 36.3744C344.622 36.3744 350.481 37.7499 355.793 40.3918C360.826 43.0215 364.997 47.0264 367.813 51.934C370.747 56.9518 372.213 62.7507 372.209 69.3304C372.205 75.9102 370.722 81.7089 367.76 86.7268C364.898 91.6407 360.687 95.644 355.62 98.269C350.317 100.991 344.42 102.373 338.451 102.29C332.518 102.383 326.655 101.001 321.396 98.269ZM348.101 81.1573C350.765 78.3894 352.094 74.4471 352.09 69.3304C352.086 64.2137 350.796 60.2793 348.221 57.5272C346.997 56.2309 345.519 55.1966 343.878 54.4877C342.238 53.7789 340.468 53.4103 338.679 53.4047C336.89 53.3992 335.118 53.7568 333.473 54.4554C331.828 55.1541 330.344 56.1792 329.112 57.4679C326.568 60.1923 325.296 64.1465 325.296 69.3304C325.296 74.4708 326.548 78.4131 329.052 81.1573C330.22 82.4934 331.67 83.558 333.298 84.2755C334.927 84.993 336.694 85.3459 338.475 85.3092C340.283 85.3281 342.075 84.9682 343.734 84.2527C345.393 83.5373 346.881 82.4826 348.101 81.1573Z" fill="white"/>
<path d="M217.574 53.2389C221.402 49.7929 225.499 47.0942 230.712 46.7146C239.98 46.0147 247.576 50.0895 251.648 58.8143C256.748 69.7456 256.593 80.926 250.747 91.5074C243.581 104.515 229.942 106.929 218.297 97.67C218.088 97.5676 217.865 97.4975 217.634 97.4623C216.798 98.5181 217.216 99.7696 217.21 100.908C217.162 108.714 216.416 127.006 216.416 127.006H203.619C203.619 127.006 203.691 122.884 203.691 117.878C203.691 96.3236 203.732 74.7694 203.619 53.2271C203.619 51.6078 203.619 48.2093 203.619 48.2093H217.073C217.073 48.2093 217.324 51.8807 217.574 53.2389ZM240.864 73.7314C240.906 73.139 240.906 72.5444 240.864 71.952C240.207 65.3209 235.937 60.5878 230.306 60.2141C224.173 59.8048 219.121 63.8381 217.64 70.4751C216.968 73.6006 216.941 76.8292 217.563 79.9651C218.566 85.2084 222.603 89.1942 227.117 89.7162C232.659 90.3567 237.024 87.7351 239.472 82.2724C240.642 79.5843 241.11 76.6468 240.834 73.7314H240.864Z" fill="white"/>
<path d="M280.455 48.6303C284.731 43.2922 289.413 40.0241 295.474 38.8616C297.916 38.3871 298.776 39.1937 298.74 41.5366C298.675 45.4868 298.645 49.437 298.74 53.3991C298.782 55.5165 297.85 56.5129 295.754 56.5545C295.557 56.5545 295.36 56.5544 295.157 56.6019C284.074 57.4856 280.491 61.2817 280.431 72.3553C280.366 81.442 280.324 90.5228 280.431 99.6391C280.467 102.255 279.571 103.127 276.986 103.032C274.106 102.953 271.223 103.058 268.357 103.346C265.604 103.595 264.643 102.498 264.678 99.7874C264.864 86.0684 264.947 72.3494 265.049 58.6304C265.084 53.9922 265.12 49.348 265.049 44.7098C265.013 42.7643 265.682 41.7441 267.7 41.6314C271.068 41.4357 274.442 41.2281 277.798 40.9078C279.912 40.7121 280.7 41.5009 280.473 43.5887C280.336 44.9707 280.455 46.3586 280.455 48.6303Z" fill="white"/>
</g>
<defs>
<clipPath id="clip0_1331_276">
<rect width="374" height="127" fill="white"/>
</clipPath>
</defs>
</svg>
