<svg width="194" height="65" viewBox="0 0 194 65" fill="none" xmlns="http://www.w3.org/2000/svg">
<g clip-path="url(#clip0_1393_250)">
<path d="M14.89 44.8856L14.636 45.7963C14.0846 47.7786 12.6907 48.7804 10.4914 48.7804C7.51158 48.7804 5.73358 46.452 5.73358 42.5542C5.73358 38.6564 7.51158 36.3978 10.4914 36.3978C12.6318 36.3978 14.1063 37.4573 14.636 39.3789L14.8869 40.2896H20.8218L20.4687 38.7717C19.335 33.9146 15.6984 31.1431 10.4914 31.1431C4.3149 31.1431 0 35.8332 0 42.5451C0 49.4057 4.21578 54.0169 10.4914 54.0169C15.4847 54.0169 19.3071 51.0996 20.4656 46.4034L20.8404 44.8856H14.89Z" fill="#022C44"/>
<path d="M41.9902 31.7928C40.9842 30.6662 39.739 29.7688 38.342 29.1631C36.945 28.5575 35.4298 28.2583 33.9025 28.2865C27.1498 28.2865 22.2495 33.7174 22.2495 41.1973C22.2495 48.7865 27.1344 54.269 33.8654 54.269C36.2001 54.2974 38.4794 53.572 40.3516 52.2047V53.9016H46.9618V28.1348L41.9902 31.7928ZM34.6026 48.0519C31.2417 48.0519 28.8969 45.2348 28.8969 41.1973C28.8969 36.5436 31.7621 34.4642 34.6026 34.4642C37.9851 34.4642 40.3485 37.2479 40.3485 41.2368C40.3485 45.2257 37.9882 48.0519 34.6026 48.0519Z" fill="#022C44"/>
<path d="M60.9631 37.3356C57.6022 36.3642 56.007 35.7389 56.007 34.1967C56.007 32.5848 57.7447 32.011 59.3709 32.011C61.7003 32.011 63.1159 33.1494 63.2521 35.1378L63.3327 36.2883H69.7694L69.6982 34.989C69.407 29.5734 65.405 26.0732 59.4979 26.0732C53.7396 26.0732 49.5579 29.4914 49.5579 34.1967C49.5579 40.3106 54.9011 41.7859 58.8041 42.8909C62.0317 43.8016 63.5526 44.3632 63.5526 45.6807C63.5526 47.1469 62.1494 48.1092 59.9749 48.1092C57.4814 48.1092 55.8273 46.9375 55.6569 45.0462L55.5547 43.923H49.022L49.0963 45.2253C49.4061 50.4194 53.8913 54.0471 60.0307 54.0471C65.7643 54.0471 69.9429 50.5347 69.9429 45.6716C69.8159 39.8856 64.6987 38.4072 60.9631 37.3356Z" fill="#022C44"/>
<path d="M94.6027 28.1771C92.676 25.864 89.4266 23.8453 84.9569 23.8453C77.0705 23.8453 71.3462 30.202 71.3462 38.9599C71.3462 47.8302 77.0488 54.2689 84.9104 54.2689C87.8374 54.308 90.6836 53.3281 92.9424 51.5033V53.8317H100.246V23.7603L94.6027 28.1771ZM85.7963 47.4234C81.6146 47.4234 78.6967 43.9445 78.6967 38.9599C78.6967 33.2133 82.262 30.6391 85.7963 30.6391C90.0028 30.6391 92.9424 34.0816 92.9424 39.0085C92.9424 43.9354 90.0028 47.4234 85.7963 47.4234Z" fill="#022C44"/>
<path d="M49.0992 0L0.30957 15.1055L0.315765 22.0026L49.7497 6.891L100.277 13.1172L100.271 6.21707L49.0992 0Z" fill="#022C44"/>
<path d="M166.713 50.295C164.126 48.9522 161.983 46.9133 160.537 44.4179C159.038 41.872 158.288 38.894 158.288 35.484C158.288 32.1144 159.048 29.1464 160.568 26.5803C162.029 24.0685 164.192 22.0188 166.803 20.6729C169.559 19.3207 172.598 18.6167 175.679 18.6167C178.761 18.6167 181.8 19.3207 184.555 20.6729C187.166 22.0188 189.33 24.0685 190.791 26.5803C192.313 29.1485 193.073 32.1164 193.071 35.484C193.069 38.8515 192.299 41.8194 190.763 44.3876C189.278 46.9026 187.094 48.9515 184.466 50.295C181.715 51.6884 178.656 52.3954 175.56 52.3532C172.482 52.4008 169.441 51.6933 166.713 50.295ZM180.566 41.5371C181.947 40.1204 182.637 38.1027 182.635 35.484C182.633 32.8652 181.964 30.8515 180.628 29.4429C179.993 28.7795 179.226 28.2501 178.375 27.8873C177.524 27.5245 176.606 27.3359 175.678 27.333C174.75 27.3302 173.831 27.5132 172.978 27.8708C172.124 28.2284 171.355 28.753 170.715 29.4126C169.396 30.807 168.736 32.8308 168.736 35.484C168.736 38.1149 169.386 40.1326 170.685 41.5371C171.29 42.2209 172.042 42.7658 172.887 43.133C173.732 43.5002 174.649 43.6808 175.572 43.6621C176.51 43.6717 177.44 43.4875 178.3 43.1214C179.161 42.7552 179.933 42.2154 180.566 41.5371Z" fill="#0070B3"/>
<path d="M112.86 27.2483C114.845 25.4846 116.97 24.1033 119.674 23.909C124.482 23.5508 128.422 25.6363 130.534 30.1018C133.18 35.6966 133.099 41.4188 130.067 46.8345C126.349 53.4918 119.275 54.7273 113.234 49.9886C113.126 49.9362 113.01 49.9003 112.891 49.8823C112.457 50.4227 112.674 51.0632 112.671 51.6461C112.646 55.641 112.259 65.003 112.259 65.003H105.621C105.621 65.003 105.658 62.8932 105.658 60.3311C105.658 49.2995 105.679 38.2678 105.621 27.2422C105.621 26.4135 105.621 24.674 105.621 24.674H112.599C112.599 24.674 112.729 26.5531 112.86 27.2483ZM124.94 37.7365C124.962 37.4334 124.962 37.129 124.94 36.8258C124.599 33.4319 122.385 31.0095 119.464 30.8182C116.282 30.6088 113.662 32.673 112.894 36.07C112.545 37.6696 112.531 39.322 112.853 40.927C113.374 43.6106 115.468 45.6506 117.809 45.9177C120.684 46.2456 122.948 44.9038 124.218 42.1079C124.825 40.7321 125.068 39.2287 124.925 37.7365H124.94Z" fill="#0070B3"/>
<path d="M145.477 24.8897C147.695 22.1575 150.123 20.4849 153.267 19.8899C154.534 19.647 154.98 20.0599 154.961 21.259C154.927 23.2808 154.912 25.3025 154.961 27.3304C154.983 28.4141 154.5 28.9241 153.413 28.9453C153.31 28.9453 153.208 28.9453 153.103 28.9696C147.354 29.4219 145.495 31.3648 145.464 37.0324C145.43 41.683 145.409 46.3307 145.464 50.9965C145.483 52.3352 145.018 52.7815 143.677 52.7329C142.183 52.6925 140.688 52.7462 139.201 52.8938C137.773 53.0213 137.274 52.4597 137.293 51.0724C137.389 44.0509 137.432 37.0293 137.485 30.0078C137.504 27.6339 137.522 25.257 137.485 22.8831C137.466 21.8874 137.813 21.3652 138.86 21.3075C140.607 21.2074 142.357 21.1011 144.098 20.9372C145.195 20.837 145.604 21.2408 145.486 22.3093C145.415 23.0166 145.477 23.727 145.477 24.8897Z" fill="#0070B3"/>
</g>
<defs>
<clipPath id="clip0_1393_250">
<rect width="194" height="65" fill="white"/>
</clipPath>
</defs>
</svg>
