<svg width="233" height="67" viewBox="0 0 233 67" fill="none" xmlns="http://www.w3.org/2000/svg">
<path d="M15.0656 45.4802L14.8123 46.399C14.2625 48.3961 12.8724 49.4099 10.6792 49.4099C7.70762 49.4099 5.93454 47.0606 5.93454 43.1278C5.93454 39.195 7.70762 36.9162 10.6792 36.9162C12.8137 36.9162 14.2841 37.9852 14.8123 39.924L15.0625 40.8429H20.9811L20.6289 39.3114C19.4983 34.4107 15.8719 31.6143 10.6792 31.6143C4.51978 31.6143 0.216797 36.3465 0.216797 43.1186C0.216797 50.0408 4.42093 54.6935 10.6792 54.6935C15.6587 54.6935 19.4705 51.75 20.6258 47.0116L20.9996 45.4802H15.0656Z" fill="#022C44"/>
<path d="M42.091 32.2667C41.087 31.1312 39.8451 30.2265 38.4521 29.616C37.059 29.0055 35.5484 28.7039 34.0256 28.7321C27.2916 28.7321 22.4048 34.2117 22.4048 41.7588C22.4048 49.4008 27.2761 54.9477 33.9885 54.9477C36.3168 54.9764 38.5899 54.2446 40.4569 52.865V54.5802H47.0488V28.582L42.091 32.2667ZM34.7237 48.6749C31.3722 48.6749 29.0338 45.8325 29.0338 41.7588C29.0338 37.0633 31.8911 34.9621 34.7237 34.9621C38.0969 34.9621 40.4538 37.7739 40.4538 41.7986C40.4538 45.8233 38.1 48.6749 34.7237 48.6749Z" fill="#022C44"/>
<path d="M61.0111 37.8537C57.6596 36.8736 56.0687 36.2426 56.0687 34.6866C56.0687 33.0602 57.8017 32.4813 59.4234 32.4813C61.7463 32.4813 63.158 33.6299 63.2939 35.6362L63.3742 36.797H69.7932L69.7221 35.4861C69.4317 30.0218 65.4408 26.4902 59.55 26.4902C53.8076 26.4902 49.6374 29.9391 49.6374 34.6866C49.6374 40.8554 54.966 42.344 58.8581 43.4589C62.0768 44.3777 63.5935 44.9413 63.5935 46.2737C63.5935 47.7531 62.1942 48.7087 60.0257 48.7087C57.5391 48.7087 55.8896 47.5264 55.7197 45.6182L55.6177 44.485H49.103L49.1772 45.7989C49.4861 51.0396 53.9589 54.6998 60.0813 54.6998C65.7991 54.6998 69.9661 51.156 69.9661 46.2492C69.8395 40.4358 64.7365 38.9594 61.0111 37.8537Z" fill="#022C44"/>
<path d="M94.5575 28.6221C92.6361 26.2882 89.3957 24.2482 84.9383 24.2482C77.0737 24.2482 71.3652 30.6804 71.3652 39.5017C71.3652 48.4515 77.0521 54.948 84.892 54.948C87.8115 54.988 90.6503 53.998 92.9017 52.1546V54.507H100.186V24.1655L94.5575 28.6221ZM85.7754 48.0411C81.6053 48.0411 78.6954 44.5279 78.6954 39.5017C78.6954 33.7035 82.2509 31.1061 85.7754 31.1061C89.9703 31.1061 92.9017 34.5795 92.9017 39.5507C92.9017 44.5218 89.9703 48.0411 85.7754 48.0411Z" fill="#022C44"/>
<path d="M157.401 27.1059C155.365 24.6342 151.939 22.4809 147.225 22.4809C138.907 22.4809 132.868 29.2653 132.868 38.6103C132.868 48.0778 138.885 54.948 147.176 54.948C150.263 54.989 153.264 53.9428 155.646 51.9954V54.4825H163.35V22.3921L157.401 27.1059ZM148.109 47.6276C143.701 47.6276 140.621 43.9123 140.621 38.595C140.621 32.4691 144.383 29.7125 148.109 29.7125C152.548 29.7125 155.646 33.388 155.646 38.644C155.646 43.9 152.548 47.6429 148.109 47.6429V47.6276Z" fill="#0070B3"/>
<path d="M49.2515 0.191895L0.59668 15.4331L0.602858 22.392L49.9002 7.14475L100.288 13.4268L100.282 6.46478L49.2515 0.191895Z" fill="#022C44"/>
<path d="M232.092 54.0933C228.985 54.0933 225.874 54.0627 222.77 54.1699C222.112 54.2269 221.45 54.1094 220.853 53.8295C220.256 53.5497 219.745 53.1175 219.372 52.5772C216.885 49.3703 214.297 46.2369 211.742 43.0821C211.405 42.6655 211.044 42.2704 210.639 41.8048C210.021 42.35 210.265 42.9871 210.262 43.5262C210.235 46.5493 210.228 49.5694 210.262 52.5925C210.262 53.738 209.811 54.2465 208.638 54.2128C207.176 54.173 205.712 54.2128 204.251 54.2128C201.391 54.2128 201.391 54.2128 201.385 51.2846C201.368 45.5426 201.353 39.8017 201.338 34.0617C201.338 27.0507 201.338 20.0396 201.276 13.0316C201.258 11.4757 201.666 10.6425 203.368 10.6487C204.951 10.6554 206.534 10.5807 208.109 10.4251C209.737 10.2658 210.231 10.9427 210.222 12.4956C210.176 18.9002 210.222 25.3079 210.244 31.7125C210.244 32.2913 210.08 32.9009 210.516 33.6727C212.039 31.6726 213.487 29.7644 214.945 27.8532C216.011 26.4565 217.25 25.1578 218.118 23.6508C219.57 21.13 221.593 20.2601 224.456 20.5358C226.254 20.7073 228.098 20.3551 229.924 20.2847C230.44 20.2663 231.132 20.0335 231.428 20.591C231.725 21.1484 231.104 21.5588 230.77 21.9539C226.89 26.5483 223.076 31.1703 219.066 35.6392C217.741 37.1155 217.83 37.9731 219.137 39.3392C223.53 43.9336 227.786 48.675 232.111 53.3552L232.092 54.0933Z" fill="#0070B3"/>
<path d="M112.125 27.9695C114.105 26.19 116.224 24.7963 118.921 24.6003C123.715 24.2389 127.644 26.3431 129.751 30.8487C132.389 36.4937 132.308 42.2673 129.284 47.7316C125.577 54.4486 118.522 55.6952 112.499 50.914C112.39 50.8611 112.275 50.8249 112.156 50.8068C111.723 51.352 111.939 51.9982 111.936 52.5863C111.912 56.6171 111.525 66.0632 111.525 66.0632H104.906C104.906 66.0632 104.943 63.9192 104.943 61.3494C104.943 50.2187 104.964 39.088 104.906 27.9634C104.906 27.1272 104.906 25.3722 104.906 25.3722H111.865C111.865 25.3722 111.995 27.2681 112.125 27.9695ZM124.156 38.552C124.179 38.241 124.179 37.9288 124.156 37.6178C123.817 34.1934 121.608 31.7492 118.695 31.5562C115.523 31.3449 112.909 33.4277 112.143 36.8551C111.795 38.4691 111.782 40.1364 112.103 41.7558C112.622 44.4634 114.71 46.5217 117.046 46.7912C119.912 47.122 122.17 45.7682 123.437 42.9473C124.044 41.5651 124.292 40.0537 124.156 38.552Z" fill="#0070B3"/>
<path d="M191.027 33.4986C190.295 33.4986 189.563 33.4619 188.834 33.4986C187.886 33.5568 187.259 33.2658 186.804 32.35C185.711 30.1508 183.817 29.3514 181.392 29.4157C178.968 29.48 177.145 30.5796 176.116 32.6931C174.3 36.439 174.303 40.3014 175.993 44.0841C176.963 46.2618 178.832 47.3615 181.229 47.4258C183.672 47.4901 185.658 46.5957 186.761 44.32C187.184 43.4501 187.725 43.0427 188.713 43.0274C190.721 42.9998 192.729 42.8743 194.737 42.7977C195.889 42.7517 196.408 43.104 196.065 44.4088C194.626 49.9895 189.016 54.4858 183.215 54.9361C171.393 55.855 166.405 46.9204 166.451 39.2018C166.488 33.0331 168.246 27.7372 173.661 24.2149C180.426 19.8195 192.269 20.7783 195.784 30.9717C196.473 32.9687 196.402 33.0698 194.311 33.3209C194.07 33.3571 193.828 33.3796 193.585 33.3884C192.732 33.3884 191.88 33.3884 191.027 33.3884V33.4986Z" fill="#0070B3"/>
</svg>
